<svg id="Layer_1" data-name="Layer 1" xmlns="http://www.w3.org/2000/svg" viewBox="0 0 200 126"><defs><style>.cls-1{fill:#fff;}.cls-2{fill:#dddddc;}.cls-3{fill:#407c71;}.cls-4{fill:#0b2c36;}.cls-5{fill:#d0d2d3;}</style></defs><path class="cls-1" d="M24.74,82.6a1.11,1.11,0,0,0-1.12-1.12h-.07l-.77,0a1.12,1.12,0,0,0-1.05,1.06,58.35,58.35,0,0,1-.8,7.69,11.52,11.52,0,0,1-2.05,4.87,10.91,10.91,0,0,1-1.35,1.49,2.92,2.92,0,0,1-1.15.68,2.36,2.36,0,0,1-.56.08,1.62,1.62,0,0,1-1.39-.85A12.27,12.27,0,0,1,12.69,92a51.62,51.62,0,0,1-.93-7c-.17-2.59-.26-5.16-.26-7.64s.09-5.05.26-7.64a51.62,51.62,0,0,1,.93-7,12.58,12.58,0,0,1,1.74-4.53,1.63,1.63,0,0,1,1.39-.85,2.36,2.36,0,0,1,.56.08,2.91,2.91,0,0,1,1.17.66,8.32,8.32,0,0,1,1.31,1.47,11.28,11.28,0,0,1,1.59,3.08,21.17,21.17,0,0,1,.86,3.81c.19,1.43.34,3.07.42,4.88a1.13,1.13,0,0,0,1,1.06l.77.06h.08a1.14,1.14,0,0,0,.77-.3,1.1,1.1,0,0,0,.35-.82c0-3.56,0-6.48,0-8.67s0-4,.1-5.51A1.12,1.12,0,0,0,24,56l-.77-.19a.84.84,0,0,0-.27,0,1.17,1.17,0,0,0-.67.22,1.13,1.13,0,0,0-.45.84c0,.44-.05.8-.08,1.11a23.9,23.9,0,0,0-2-2.5,8.87,8.87,0,0,0-4.15-2.51A9.57,9.57,0,0,0,13,52.55a7.43,7.43,0,0,0-5,1.9C6,56.25,4.39,59.12,3.25,63.22A54.72,54.72,0,0,0,1.59,77.68,54.22,54.22,0,0,0,3.2,92.06c1.12,4,2.69,6.7,4.8,8.31a7.59,7.59,0,0,0,4.72,1.6,10.43,10.43,0,0,0,2.88-.43,8.49,8.49,0,0,0,4.08-2.49q1.09-1.22,2.1-2.58c0,.31.06.7.09,1.16A1.12,1.12,0,0,0,23,98.69a1.24,1.24,0,0,0,.27,0l.77-.19a1.13,1.13,0,0,0,.85-1.12c-.05-1.52-.08-3.4-.1-5.74S24.74,86.32,24.74,82.6Z" transform="translate(0.09 -0.02)"/><path class="cls-1" d="M53.51,84.43c0-1.47,0-2.69.1-3.63v-.13a1.12,1.12,0,0,0-1.12-1.12h-.05l-.77,0a1.11,1.11,0,0,0-1.06,1,17.35,17.35,0,0,1-1.4,4.78,17.82,17.82,0,0,1-2.34,3.92c-1,1.21-1.6,1.47-1.88,1.52l-1.11.18-.32,0a7.94,7.94,0,0,1-.1-1.52V65.92a8.83,8.83,0,0,1,.17-2.16.5.5,0,0,1,.08-.2,2.65,2.65,0,0,1,.47,0,5.48,5.48,0,0,1,.75.06h.14a1.11,1.11,0,0,0,.74-.27,1.14,1.14,0,0,0,.38-.85v-.88a1.11,1.11,0,0,0-1-1.11c-.77-.1-1.66-.23-2.64-.38s-2.17-.36-3.26-.57S37,59.05,36,58.8s-1.83-.44-2.54-.63a.92.92,0,0,0-.29,0,1.14,1.14,0,0,0-.68.23,1.11,1.11,0,0,0-.44.89v1a1.11,1.11,0,0,0,.85,1.08,2.89,2.89,0,0,1,1.09.46,1.18,1.18,0,0,1,.3.66A14.55,14.55,0,0,1,34.39,65v24.5A15.05,15.05,0,0,1,34.24,92c-.09.47-.22.61-.26.64a3.72,3.72,0,0,1-1.18.52,1.13,1.13,0,0,0-.8,1.07v1a1.12,1.12,0,0,0,.44.89,1.14,1.14,0,0,0,.68.23,1.35,1.35,0,0,0,.29,0c1.27-.34,2.67-.67,4.16-1s2.89-.59,4.29-.85l3.24-.58c1.17-.21,2.45-.42,3.82-.63s2.66-.37,3.82-.49a1.12,1.12,0,0,0,1-1.21c-.11-1.39-.17-2.76-.2-4.08S53.51,85.13,53.51,84.43Z" transform="translate(0.09 -0.02)"/><path class="cls-1" d="M83.71,86.76a1.11,1.11,0,0,1-.31-.2,3,3,0,0,1-.7-1.09c-3-7.19-5.66-13.94-8.17-20.6a1.12,1.12,0,0,0-1-.72q-.78,0-1.68-.09t-1.68-.21a.68.68,0,0,0-.2,0,1.11,1.11,0,0,0-1,.71C66.21,71.34,63.75,78,61.36,84.9A12.72,12.72,0,0,1,60,88a2.21,2.21,0,0,1-1,.88A1.13,1.13,0,0,0,58.19,90v.76a1.15,1.15,0,0,0,.45.9,1.08,1.08,0,0,0,.67.22,1,1,0,0,0,.3,0c.3-.08.67-.15,1.1-.22l1.34-.18,2.15-.24c.66-.06,1.4-.11,2.2-.15a1.12,1.12,0,0,0,1.07-1.12v-.71a1.13,1.13,0,0,0-1.13-1.12H66a2.85,2.85,0,0,1-1.33-.26c-.13-.06-.26-.41-.27-1a14.38,14.38,0,0,1,1-4.4l.33-.92L71,81.32c.57,1.56,1.15,3.16,1.74,4.74v0a3.92,3.92,0,0,1,.32,1.14,4.52,4.52,0,0,1-1.38.33,1.11,1.11,0,0,0-1,1.11v.68a1.14,1.14,0,0,0,.39.86,1.12,1.12,0,0,0,.73.26H72c.6-.1,1.39-.19,2.36-.28s2.1-.19,3.22-.26,2.2-.15,3.3-.2,2-.08,2.76-.08a1.14,1.14,0,0,0,1.15-1.12v-.64A1.13,1.13,0,0,0,83.71,86.76Z" transform="translate(0.09 -0.02)"/><path class="cls-1" d="M115.17,86a1.13,1.13,0,0,0-.79-.31,1.1,1.1,0,0,0-.74.28l-.11.08h-.2v0a3.37,3.37,0,0,1-.42-1.2c-.23-1.07-.47-2.16-.71-3.25a5.32,5.32,0,0,0-2.77-3.69l-.45-.23a7.54,7.54,0,0,0,1.43-.82,6.34,6.34,0,0,0,2.09-2.43,6.57,6.57,0,0,0,.61-2.73,5.34,5.34,0,0,0-3.15-5c-1.76-.87-4.34-1.3-7.89-1.3h-.29l-1.91,0h-.31l-1.94,0H96.33c-1.08,0-2.16,0-3.2-.08l-2.57-.13h-.07a1.11,1.11,0,0,0-.77.3,1.14,1.14,0,0,0-.35.82v.62a1.13,1.13,0,0,0,1,1.12,3.69,3.69,0,0,1,1.19.19h0l0,0a5.15,5.15,0,0,1,.12,1.35V84.9a4.69,4.69,0,0,1-.13,1.35.12.12,0,0,1,0,0,5.92,5.92,0,0,1-1.24.2,1.12,1.12,0,0,0-1,1.12v.62a1.11,1.11,0,0,0,1.12,1.12h.1c.65-.07,1.5-.11,2.53-.14s2.25-.06,3.41-.07h3.12c1,0,1.81,0,2.46.08h.07a1.14,1.14,0,0,0,.77-.3,1.16,1.16,0,0,0,.35-.82v-.62a1.1,1.1,0,0,0-1-1.11,4.71,4.71,0,0,1-1.22-.19l0,0a5,5,0,0,1-.12-1.3V78.91h.4a.66.66,0,0,1,.56.2,3,3,0,0,1,.57,1.13,15.66,15.66,0,0,1,.48,2.1l.51,3.08a4.5,4.5,0,0,0,2.22,3.43,9,9,0,0,0,4.07,1h.47a10.74,10.74,0,0,0,2.63-.3,6.52,6.52,0,0,0,2.76-1.5,1.15,1.15,0,0,0,.38-.81,1.17,1.17,0,0,0-.34-.83Z" transform="translate(0.09 -0.02)"/><path class="cls-1" d="M142.17,84.36c0-1.39,0-2.55.1-3.44a1.11,1.11,0,0,0-1.08-1.2l-.78,0h0a1.13,1.13,0,0,0-1.11,1,15.09,15.09,0,0,1-1.46,4.89A5.12,5.12,0,0,1,136,87.61a3.24,3.24,0,0,1-1.49.43l-.22,0-1.12-.11a3.76,3.76,0,0,1-1-.18h0a3.88,3.88,0,0,1-.1-1.1v-7.9a2.82,2.82,0,0,1,.87.37,3.77,3.77,0,0,1,1.24,1.35,6,6,0,0,1,.7,2.08,1.11,1.11,0,0,0,1.05,1l.78,0h0a1.1,1.1,0,0,0,.8-.34,1.07,1.07,0,0,0,.32-.85c-.09-1.42-.14-2.45-.17-3.17s0-1.38,0-2,0-1.29,0-2,0-1.74.12-3.11a1.14,1.14,0,0,0-.32-.86,1.1,1.1,0,0,0-.8-.34h-.05l-.78,0a1.13,1.13,0,0,0-1.05.91,6.29,6.29,0,0,1-.69,1.87,5,5,0,0,1-1.27,1.54,2.1,2.1,0,0,1-.75.4V67.85a4.26,4.26,0,0,1,.09-1.1,3.78,3.78,0,0,1,1-.19l.44,0,.43,0a3.92,3.92,0,0,1,1.65.36,4.09,4.09,0,0,1,1.7,1.8,12.64,12.64,0,0,1,1.22,4.41,1.12,1.12,0,0,0,1.11,1h.05l.77,0a1.14,1.14,0,0,0,1.08-1.2c0-.32,0-.72-.07-1.19s0-1,0-1.47,0-1.5.05-2.69.09-2.39.18-3.65a1.13,1.13,0,0,0-1.12-1.2l-.19,0c-1,.18-2.21.36-3.48.52s-2.38.29-3.51.41l-3.25.33c-1.38.13-2.83.25-4.31.35s-2.79.18-4.23.25a1.13,1.13,0,0,0-1.06,1.12v.66a1.13,1.13,0,0,0,1.12,1.12H122a2.74,2.74,0,0,1,.85.09h0A5.72,5.72,0,0,1,123,69V85.5a5.88,5.88,0,0,1-.12,1.48h0a5.37,5.37,0,0,1-1.12.09h0a1.1,1.1,0,0,0-.79.32,1.14,1.14,0,0,0-.33.8v.65A1.12,1.12,0,0,0,121.66,90c1.32,0,2.74.13,4.21.24s2.91.23,4.31.37l3.25.33,3.83.44c1.4.18,2.69.38,3.83.58l.2,0a1.14,1.14,0,0,0,.76-.3,1.1,1.1,0,0,0,.35-.92c-.11-1.26-.17-2.49-.19-3.65S142.17,85,142.17,84.36Z" transform="translate(0.09 -0.02)"/><path class="cls-1" d="M167.1,76.85a31.18,31.18,0,0,0-2.85-3.15c-.79-.78-1.49-1.47-2.12-2.07l-1.29-1.25a9.11,9.11,0,0,1-1.69-2.14,5,5,0,0,1-.48-2.32,4.16,4.16,0,0,1,.75-2.64,2.81,2.81,0,0,1,1.77-1.14,2.42,2.42,0,0,1,.45,0,1.93,1.93,0,0,1,1.51.77,9.08,9.08,0,0,1,1.75,3.54,22.38,22.38,0,0,1,.82,5.08,1.13,1.13,0,0,0,1.12,1.07h.07l.78,0a1.12,1.12,0,0,0,1-1.12c0-2.65,0-4.68,0-6.21s0-2.82.06-3.78.06-1.82.09-2.55a1.11,1.11,0,0,0-.41-.89,1.09,1.09,0,0,0-.71-.26,1,1,0,0,0-.24,0l-.77.17a1.1,1.1,0,0,0-.88,1,9.53,9.53,0,0,1-.14,1.07h0a10.1,10.1,0,0,0-2.31-1,5.48,5.48,0,0,0-1.65-.23,12.34,12.34,0,0,0-2.31.26A13,13,0,0,0,155,60.76a10.81,10.81,0,0,0-3.45,3.54,9.92,9.92,0,0,0-1.35,5.32,10,10,0,0,0,.94,4.5,13.12,13.12,0,0,0,2.42,3.38c.9.9,1.88,1.86,3,2.92a22.66,22.66,0,0,1,3.38,3.91,8,8,0,0,1,1.19,4.48,3.3,3.3,0,0,1-.75,2.46,1.73,1.73,0,0,1-1.3.48,4.24,4.24,0,0,1-.67-.07,4.09,4.09,0,0,1-2.74-1.8,11.84,11.84,0,0,1-1.74-4.15,29.09,29.09,0,0,1-.73-5.49,1.12,1.12,0,0,0-1.09-1.07l-.77,0h0a1.13,1.13,0,0,0-1.12,1.12c0,2.39,0,4.39,0,5.95s0,2.82,0,3.8,0,1.8-.08,2.5a1.13,1.13,0,0,0,.93,1.18l.77.13h.19a1.11,1.11,0,0,0,1.12-1l0-.27.06,0a20.15,20.15,0,0,0,2.43,1.59,13.24,13.24,0,0,0,4,1.37,11.73,11.73,0,0,0,2.37.25,9,9,0,0,0,2.72-.4,6.91,6.91,0,0,0,4-3.15A11.65,11.65,0,0,0,170,86.11a15.62,15.62,0,0,0-.81-5.32A14.32,14.32,0,0,0,167.1,76.85Z" transform="translate(0.09 -0.02)"/><path class="cls-1" d="M198,96.13c0-2.26,0-4,0-5.24,0-2.72,0-5,.1-6.7a1.12,1.12,0,0,0-1-1.16l-.76-.06h-.1a1.13,1.13,0,0,0-1.11,1,51.38,51.38,0,0,1-1.53,9.79c-.77,2.63-1.49,3.71-1.95,4.16a1.79,1.79,0,0,1-1.07.6l-.17,0-1.11-.3a2,2,0,0,1-.83-.38,1.38,1.38,0,0,1-.24-.69,16.74,16.74,0,0,1-.14-2.49V79.12a2.28,2.28,0,0,1,.58.53,8.34,8.34,0,0,1,1.38,2.9A21.62,21.62,0,0,1,190.8,87a1.11,1.11,0,0,0,1,1l.77.09h.13A1.11,1.11,0,0,0,193.8,87c-.09-2.69-.14-4.67-.17-6s0-2.67,0-3.81,0-2.44,0-3.84,0-3.38.12-6a1.11,1.11,0,0,0-1.12-1.16h-.14l-.76.09a1.12,1.12,0,0,0-1,1,24.1,24.1,0,0,1-.76,4,11.85,11.85,0,0,1-1.4,3.25,2.78,2.78,0,0,1-.48.58V59.82a16.54,16.54,0,0,1,.14-2.52,1.32,1.32,0,0,1,.24-.66,2,2,0,0,1,.83-.38l.44-.12a1.74,1.74,0,0,1,.45-.06,1.81,1.81,0,0,1,1.16.47c.45.37,1.13,1.3,1.82,3.63a44.65,44.65,0,0,1,1.29,8.9,1.13,1.13,0,0,0,.39.78,1.15,1.15,0,0,0,.73.27h.11l.76-.08a1.12,1.12,0,0,0,1-1.15q0-.94-.06-2.31c0-.91,0-1.88,0-2.88,0-1.19,0-2.94,0-5.2s.1-4.62.18-7.07a1.11,1.11,0,0,0-.47-1,1.15,1.15,0,0,0-.64-.2,1.07,1.07,0,0,0-.43.09c-1,.4-2.13.81-3.4,1.21s-2.35.74-3.45,1l-3.21.91c-1.33.37-2.76.74-4.24,1.09s-2.79.65-4.19,1a1.11,1.11,0,0,0-.88,1.09v1.16a1.11,1.11,0,0,0,.41.86,1.09,1.09,0,0,0,.71.26.65.65,0,0,0,.2,0,4.13,4.13,0,0,1,.55,0l.23,0a1.81,1.81,0,0,1,.13.46,21.35,21.35,0,0,1,.15,3V92.07a21.6,21.6,0,0,1-.15,3,2,2,0,0,1-.12.46l-.31,0a3.81,3.81,0,0,1-.54,0h-.14a1.12,1.12,0,0,0-1.12,1.12v1.17a1.13,1.13,0,0,0,.91,1.1c1.31.25,2.7.56,4.15.92s2.91.74,4.25,1.11l3.21.91c1.17.34,2.44.73,3.77,1.15s2.66.89,3.75,1.33a1,1,0,0,0,.42.08,1.16,1.16,0,0,0,.65-.2,1.12,1.12,0,0,0,.47-1C198.12,100.78,198.05,98.38,198,96.13Z" transform="translate(0.09 -0.02)"/><path class="cls-2" d="M17.22,57.67v.14l.25.2A.66.66,0,0,0,17.22,57.67Z" transform="translate(0.09 -0.02)"/><path class="cls-3" d="M114.29,46.72a2.33,2.33,0,0,0,.66.74l.73.46.22-.53.49-1.19a2.75,2.75,0,0,1-1.19.44A4.73,4.73,0,0,1,114.29,46.72Z" transform="translate(0.09 -0.02)"/><path class="cls-3" d="M109.07,39.17a14.61,14.61,0,0,1-1.53,4l-.18.33a12.37,12.37,0,0,0,1.11.59l1.18.55.63-.69a.91.91,0,0,0,.13-.16,11.86,11.86,0,0,1-.73-3.07C109.67,40.63,109.4,37.91,109.07,39.17Z" transform="translate(0.09 -0.02)"/><path class="cls-3" d="M69.35,16.81C67,12.63,64.77,11,61.55,10.94c-2.8,0-4.4.74-11.61,5.53a68,68,0,0,0-9.65,7.47c-4.83,4.36-6.76,5.8-13.81,10.37-3.27,2.12-3.8,2.55-3.92,3.15a4.11,4.11,0,0,0,.53,3.22A27.19,27.19,0,0,1,25,46.94a1.15,1.15,0,0,1-.92,1.29,14.63,14.63,0,0,0,.55,2.15c.13.37.25,0,2.19-6.87.84-2.95,1.43-4.64,1.74-4.94A1.91,1.91,0,0,0,29,37.14a2,2,0,0,1,.61-1.59c.7-.73.82-.76,1.29-.29.26.26.32.63.22,1.42A8,8,0,0,0,31.72,40c.39,1.25.85,3,1,3.87A20,20,0,0,0,33.28,46c.18.49.21.47.49-.34.16-.47.71-1.81,1.21-3,.79-1.81,1-2.1,1.46-2.1a2,2,0,0,0,1.19-.72c.38-.42.75-.65.91-.55a.3.3,0,0,1,.12.4,11.5,11.5,0,0,0-.23,2.19,5.26,5.26,0,0,0,.6,3.36,8.78,8.78,0,0,1,.68,1.7c0,.68.88-.93.95-1.73s.18-.91.49-1c.7-.14.94.35,1.06,2.06a3.76,3.76,0,0,0,.35,1.7,5.2,5.2,0,0,0,.79-2.12,8,8,0,0,1,1.08-2.74,2.06,2.06,0,0,0,.51-1.53,1.79,1.79,0,0,1,.64-1.57c.74-.72.81-.73,1.27-.27.25.25.31.63.22,1.42a5.47,5.47,0,0,0,.23,2.14c1.06-.63,2.25-1.27,2.75-1.57l.53-.29c.29-.71.55-1.35.73-1.76.62-1.38.83-1.65,1.29-1.65a2,2,0,0,0,1.18-.72c.38-.42.75-.65.91-.55a.29.29,0,0,1,.12.4,11.23,11.23,0,0,0-.23,2.18v.16c1.25-.51,2.53-1,4-1.5l2.59-.89a6.59,6.59,0,0,0,.9-.34,6.44,6.44,0,0,0,.63-.92,20.6,20.6,0,0,1,3.19-3.69L68.24,30a67.59,67.59,0,0,1,6.81-5.36,25.78,25.78,0,0,0-2.61-3.39A34.68,34.68,0,0,1,69.35,16.81Z" transform="translate(0.09 -0.02)"/><path class="cls-3" d="M150.84,39.33a17.5,17.5,0,0,1-.57-2.39,7.64,7.64,0,0,0-1.42-3.33c-.77-.7-2.09-1.29-4.71-2.1A19,19,0,0,1,134.2,25c-2.95-3.43-4.18-4.61-5.61-5.37-2.56-1.37-4.25-3.34-4.25-5a.88.88,0,0,0-.6-1c-.52-.24-1.09-.11-4.61,1.07a53.63,53.63,0,0,0-8.64,3.67,14.54,14.54,0,0,1-.32,1.77c0,.21-.29.73-.1.69a7.72,7.72,0,0,1,3.21,0c3.74.75,4.81,2.35,6.51,5.53s3.27,6.73,7.38,6a8.43,8.43,0,0,0,4-2.73,4,4,0,0,0,.39-2.08,16.36,16.36,0,0,1-.28-1.8c.32-.18.73.47,1,1,0-.19.15-.11.65.24a7.73,7.73,0,0,1,2.07,2.3c0,.57-1,.12-1.8-.83a6.29,6.29,0,0,1-.53-.68,2.88,2.88,0,0,1-.21,1.85c-1.1,2.83-3.32,5.84-6.66,5.84a7.06,7.06,0,0,1-2.73-.49c-4.46-1.82-4.78-7.67-7.28-10-1.45-1.33-3.94-1.21-5.64-.5A8.55,8.55,0,0,1,113,26.89c1.53,1.95,2.08,4.14.21,6.07-.55.54-.63.35-.23.71,2.1,1.92,4.32,5.37,6.81,6.5a3.52,3.52,0,0,0,3.23-.42c.33-.22,1.17.06.56.58a8.11,8.11,0,0,1-2.87,1.51c-.06.4-.12,1.12-.15,1.9a5.21,5.21,0,0,0,.58,3.33,24.85,24.85,0,0,1,1.15,3c.48,1.57,1.13,2.44,1.7,2.26a18.43,18.43,0,0,0,1.18-3.51,13.85,13.85,0,0,1,1.42-3.91,1.84,1.84,0,0,0,.47-1.45,1.81,1.81,0,0,1,.65-1.6c.63-.61,1.4-.65,1.4-.08s.38-.17.79-1.32c.22-.63.81-2.09,1.31-3.25.79-1.81,1-2.1,1.46-2.1a1.9,1.9,0,0,0,1.18-.72c.39-.42.76-.65.92-.55a.31.31,0,0,1,.12.41,11.11,11.11,0,0,0-.23,2.18,5.21,5.21,0,0,0,.59,3.33A26.23,26.23,0,0,1,137.14,46a1.15,1.15,0,0,1-.91,1.29,13.14,13.14,0,0,0,.54,2.15c.14.37.25,0,2.2-6.87.83-3,1.42-4.64,1.74-4.94a1.91,1.91,0,0,0,.46-1.43,2,2,0,0,1,.61-1.59c.71-.73.82-.76,1.3-.28.27.26.32.61.21,1.37a8.49,8.49,0,0,0,.62,3.51c.75,2.46.76,2.49,1.05,1.81a22.24,22.24,0,0,0,.53-3.92c.27-3.56.44-4,1.44-3.6.34.13.61.34.61.47s.15.23.33.23c.47,0,.72.59.9,2.05.08.69.49,2.53.9,4.09l.76,2.85,1-1.92Zm-21.13-15a7.3,7.3,0,0,0-1.88-1.16c-1-.4-1.3-.78-.53-.78a6.06,6.06,0,0,1,3.16,1.8C131.32,25.4,131,25.46,129.71,24.34Z" transform="translate(0.09 -0.02)"/><path class="cls-3" d="M110.19,35.65l.92,1a7.73,7.73,0,0,1,1,3.65c.26-.16.42-.07.72.23s.31.66.23,1.53a8.28,8.28,0,0,0,.61,3.41,2.45,2.45,0,0,0,1.37.48,3.1,3.1,0,0,0,1.72-.79l.15-.14c.93-2.15,1.25-2.56,1.66-2.56a1.45,1.45,0,0,0,.81-.37c-1.82,0-4.6-1.69-5.84-2.95C113.17,38.72,110.48,35.34,110.19,35.65Z" transform="translate(0.09 -0.02)"/><path class="cls-3" d="M11.6,62.48a13.24,13.24,0,0,1,1.92-4.95,2.73,2.73,0,0,1,3.14-1.21,4,4,0,0,1,1.62.9,8.83,8.83,0,0,1,1.49,1.68,12.13,12.13,0,0,1,1.74,3.37,21.14,21.14,0,0,1,.91,4c.2,1.47.34,3.13.43,5l.77.06c0-3.61,0-6.51,0-8.69s.05-4,.1-5.53L23,56.9a8.37,8.37,0,0,1-.49,3q-.34.6-1-.42A22.93,22.93,0,0,0,19,56.21,7.72,7.72,0,0,0,15.32,54a6.6,6.6,0,0,0-6.54,1.27c-1.89,1.64-3.38,4.37-4.45,8.24A53.53,53.53,0,0,0,2.71,77.68,53.09,53.09,0,0,0,4.28,91.75q1.56,5.58,4.4,7.73a7.09,7.09,0,0,0,6.61,1,7.49,7.49,0,0,0,3.56-2.17A33.82,33.82,0,0,0,21.48,95c.49-.66.84-.78,1.06-.4a9.3,9.3,0,0,1,.45,3l.77-.19c-.05-1.54-.08-3.46-.1-5.76s0-5.3,0-9l-.77.05A58.67,58.67,0,0,1,22,90.49a12.54,12.54,0,0,1-2.26,5.33,11.93,11.93,0,0,1-1.49,1.65,3.85,3.85,0,0,1-1.62.93,2.72,2.72,0,0,1-3.14-1.2,13.11,13.11,0,0,1-1.92-4.94,49.52,49.52,0,0,1-.95-7.17c-.18-2.63-.27-5.21-.27-7.72s.09-5.08.27-7.72A49.52,49.52,0,0,1,11.6,62.48Z" transform="translate(0.09 -0.02)"/><path class="cls-3" d="M52.39,84.43c0-1.53,0-2.78.1-3.76l-.78,0a19.82,19.82,0,0,1-4,9.26,4.71,4.71,0,0,1-2.56,1.91l-1.11.19A2.08,2.08,0,0,1,43,92c-.25-.09-.41-.33-.5-.73a8.92,8.92,0,0,1-.14-1.83V65.92a10.9,10.9,0,0,1,.2-2.45,1.25,1.25,0,0,1,.8-1,4.27,4.27,0,0,1,1.73,0v-.88c-.7-.09-1.58-.22-2.66-.39s-2.18-.36-3.3-.57-2.35-.48-3.41-.73-1.93-.47-2.58-.64v1a3.77,3.77,0,0,1,1.53.68,2.1,2.1,0,0,1,.69,1.32A16.15,16.15,0,0,1,35.51,65v24.5a16.46,16.46,0,0,1-.17,2.7,2,2,0,0,1-.67,1.31,4.69,4.69,0,0,1-1.55.71v1c1.3-.35,2.71-.68,4.22-1s2.95-.6,4.31-.85l3.25-.59c1.13-.19,2.41-.4,3.85-.62s2.73-.39,3.88-.51c-.12-1.42-.18-2.81-.21-4.15S52.39,85.14,52.39,84.43Z" transform="translate(0.09 -0.02)"/><path class="cls-3" d="M81.68,85.92c-2.73-6.57-5.46-13.39-8.2-20.65q-.81,0-1.77-.09c-.65-.06-1.24-.13-1.78-.23-2.5,6.37-5,13.09-7.51,20.32a13.39,13.39,0,0,1-1.57,3.4A3.29,3.29,0,0,1,59.31,90v.76c.34-.09.75-.17,1.24-.25l1.37-.18c.78-.1,1.51-.18,2.18-.24s1.41-.12,2.24-.16v-.71a4.23,4.23,0,0,1-2.19-.38c-.57-.29-.85-1-.87-2A15.87,15.87,0,0,1,64.38,82L65,80.35l6.81-.17q1,2.79,2,5.49c.45,1.12.52,1.86.22,2.23a3.5,3.5,0,0,1-2.18.77v.68c.61-.1,1.42-.2,2.43-.29s2.1-.18,3.25-.26,2.24-.15,3.32-.2,2-.08,2.85-.08v-.64a1.65,1.65,0,0,1-1-.45A3.91,3.91,0,0,1,81.68,85.92Zm-16.45-6.3q1.62-4.55,3.25-8.85Q70,75.24,71.54,79.5Z" transform="translate(0.09 -0.02)"/><path class="cls-3" d="M113.91,87.05a1.66,1.66,0,0,1-.58.08,1.16,1.16,0,0,1-.91-.48,4.52,4.52,0,0,1-.61-1.61c-.24-1.1-.48-2.19-.71-3.27a4.23,4.23,0,0,0-2.22-3,12.32,12.32,0,0,0-5.14-1.13,18,18,0,0,0,2.66-.41,9.2,9.2,0,0,0,3.34-1.4,5.1,5.1,0,0,0,1.73-2,5.32,5.32,0,0,0,.51-2.26,4.22,4.22,0,0,0-2.53-4c-1.68-.83-4.24-1.2-7.67-1.18l-2.21,0c-1,0-2.12,0-3.25,0s-2.16,0-3.24-.09l-2.59-.12v.62a5.16,5.16,0,0,1,1.54.27,1.16,1.16,0,0,1,.7.76,6.19,6.19,0,0,1,.17,1.68V84.9a6.26,6.26,0,0,1-.17,1.67,1.11,1.11,0,0,1-.68.76,6.1,6.1,0,0,1-1.56.29v.62c.65-.06,1.52-.11,2.59-.14S95.3,88,96.52,88h3.14q1.55,0,2.52.09v-.62a5.86,5.86,0,0,1-1.52-.25,1.13,1.13,0,0,1-.7-.74,5.64,5.64,0,0,1-.18-1.65V77.79h1.52a1.77,1.77,0,0,1,1.39.57,4.27,4.27,0,0,1,.82,1.55,16.47,16.47,0,0,1,.5,2.25l.51,3.08a3.45,3.45,0,0,0,1.66,2.63,7.93,7.93,0,0,0,3.56.82,10.22,10.22,0,0,0,2.8-.26,5.45,5.45,0,0,0,2.28-1.24c-.14-.15-.29-.29-.44-.43A1.25,1.25,0,0,1,113.91,87.05ZM103.32,76.49a4.27,4.27,0,0,1-2.63.69h-.91V69.63a4.35,4.35,0,0,1,.34-2.12c.22-.35.72-.52,1.49-.52a2.61,2.61,0,0,1,2.52,1.31,7.9,7.9,0,0,1,.73,3.77,9.77,9.77,0,0,1-.32,2.57A3.48,3.48,0,0,1,103.32,76.49Z" transform="translate(0.09 -0.02)"/><path class="cls-3" d="M141.05,84.36c0-1.43,0-2.6.1-3.52l-.77,0a16,16,0,0,1-1.59,5.27,6.19,6.19,0,0,1-2.28,2.52,4.14,4.14,0,0,1-2.35.54L133,89a4.5,4.5,0,0,1-1.32-.29,1.05,1.05,0,0,1-.59-.69,5.13,5.13,0,0,1-.15-1.43v-9.1h.33a4.1,4.1,0,0,1,2.27.63,4.92,4.92,0,0,1,1.61,1.74,7.3,7.3,0,0,1,.83,2.46l.77,0c-.09-1.4-.14-2.47-.17-3.2s0-1.41,0-2,0-1.28,0-2,0-1.79.12-3.2l-.78,0a7.39,7.39,0,0,1-.81,2.2,6.17,6.17,0,0,1-1.55,1.88,3.51,3.51,0,0,1-2.24.76H131v-9a5.19,5.19,0,0,1,.15-1.45,1,1,0,0,1,.59-.66,4.2,4.2,0,0,1,1.32-.29l.44,0a4.93,4.93,0,0,1,2.65.43,5.07,5.07,0,0,1,2.22,2.27,13.76,13.76,0,0,1,1.35,4.82l.78,0c0-.33,0-.74-.07-1.22s0-1,0-1.52,0-1.54.05-2.72.09-2.42.18-3.7c-1,.19-2.21.36-3.53.53s-2.5.3-3.53.41l-3.27.33c-1.36.14-2.81.25-4.33.36s-2.94.18-4.25.25v.66a4.63,4.63,0,0,1,1.54.14,1.08,1.08,0,0,1,.7.75,7.11,7.11,0,0,1,.17,1.81V85.5a7.15,7.15,0,0,1-.17,1.79,1,1,0,0,1-.68.75,5.48,5.48,0,0,1-1.56.16v.65c1.31.05,2.73.13,4.25.24s3,.24,4.33.37l3.27.33c1.12.12,2.41.27,3.85.45s2.74.38,3.89.59c-.11-1.3-.18-2.54-.2-3.73S141.05,85,141.05,84.36Z" transform="translate(0.09 -0.02)"/><path class="cls-3" d="M166.21,77.54a28.6,28.6,0,0,0-2.74-3c-1.41-1.39-2.55-2.48-3.41-3.32a9.84,9.84,0,0,1-1.9-2.42,6,6,0,0,1-.61-2.84,5.24,5.24,0,0,1,1-3.32A4,4,0,0,1,161,61a3,3,0,0,1,3,1.09,10.32,10.32,0,0,1,2,4,23.74,23.74,0,0,1,.86,5.34l.77-.06c0-2.57,0-4.64,0-6.22s0-2.84.06-3.81.06-1.81.09-2.54L167,59c-.13,1.53-.38,2.32-.74,2.38a.71.71,0,0,1-.48-.08,5.79,5.79,0,0,1-.66-.4,8.7,8.7,0,0,0-2.05-.92,7.11,7.11,0,0,0-3.4.06,11.83,11.83,0,0,0-4.07,1.68,9.74,9.74,0,0,0-3.11,3.18,10.11,10.11,0,0,0-.35,8.75,11.72,11.72,0,0,0,2.21,3.08c.92.93,1.91,1.9,3,2.9a23.34,23.34,0,0,1,3.54,4.1,9,9,0,0,1,1.38,5.1,4.39,4.39,0,0,1-1.09,3.27,3.21,3.21,0,0,1-2.95.7,5.18,5.18,0,0,1-3.45-2.25A13,13,0,0,1,152.81,86a32,32,0,0,1-.75-5.69l-.78,0c0,2.41,0,4.4,0,6s0,2.82,0,3.8,0,1.83-.08,2.56l.77.13c.14-1.23.38-1.83.74-1.77a2.54,2.54,0,0,1,1.15.79,22.78,22.78,0,0,0,2.31,1.5,12.2,12.2,0,0,0,3.65,1.24,9.1,9.1,0,0,0,4.54-.12,5.83,5.83,0,0,0,3.35-2.67,10.61,10.61,0,0,0,1.26-5.57,14.77,14.77,0,0,0-.74-4.94A12.92,12.92,0,0,0,166.21,77.54Z" transform="translate(0.09 -0.02)"/><path class="cls-3" d="M196.91,96.15c0-2.29,0-4,0-5.26q0-4.11.1-6.74l-.77-.07a53.12,53.12,0,0,1-1.56,10,11.15,11.15,0,0,1-2.25,4.65,2.42,2.42,0,0,1-2.32.85l-1.1-.3a3.09,3.09,0,0,1-1.3-.64,2.32,2.32,0,0,1-.59-1.33,17.75,17.75,0,0,1-.15-2.67V77.76h.34A2.83,2.83,0,0,1,189.51,79a9.29,9.29,0,0,1,1.59,3.28,22.66,22.66,0,0,1,.81,4.68l.77.09c-.09-2.66-.14-4.68-.17-6.07s0-2.67,0-3.83,0-2.44,0-3.83,0-3.4.12-6.06l-.77.09a23.61,23.61,0,0,1-.8,4.16A12.92,12.92,0,0,1,189.48,75a2.63,2.63,0,0,1-2.2,1.43h-.34V59.82a17.72,17.72,0,0,1,.15-2.71,2.26,2.26,0,0,1,.59-1.29,3,3,0,0,1,1.3-.64l.43-.12a2.79,2.79,0,0,1,2.62.63,8.56,8.56,0,0,1,2.18,4.18A44.6,44.6,0,0,1,195.55,69l.76-.08c0-.63,0-1.41-.06-2.33s0-1.88,0-2.9c0-1.22,0-3,0-5.22s.1-4.63.19-7.09c-1,.42-2.19.84-3.49,1.25s-2.46.77-3.48,1.06l-3.22.91c-1.35.37-2.78.74-4.28,1.1l-4.21,1v1.16a2.56,2.56,0,0,1,1.53.08,1.67,1.67,0,0,1,.69,1.27,22.41,22.41,0,0,1,.16,3.22V92.07a22.65,22.65,0,0,1-.16,3.2c-.12.69-.34,1.11-.67,1.27a2.92,2.92,0,0,1-1.55.1v1.17c1.3.24,2.7.55,4.21.93s2.93.75,4.28,1.13l3.22.91c1.11.32,2.38.7,3.8,1.15s2.7.91,3.83,1.36Q196.95,99.57,196.91,96.15Z" transform="translate(0.09 -0.02)"/><path class="cls-4" d="M37.45,104.22l3.51,1.9-.47.86L38,105.64l-.89,1.65,2.11,1.14-.47.86-2.11-1.14-1.31,2.43-1-.56Z" transform="translate(0.09 -0.02)"/><path class="cls-4" d="M42.78,107l3.6,1.67-.42.9-2.53-1.19-.72,1.54,2.15,1-.41.89-2.15-1-.83,1.77,2.63,1.22-.42.89L40,113Z" transform="translate(0.09 -0.02)"/><path class="cls-4" d="M48.51,109.61l2.07.81c1.28.51,2.08,1.35,1.54,2.72s-1.74,1.52-3,1l-1-.39-.94,2.4-1.09-.43Zm.82,3.63c.84.34,1.44.17,1.72-.53s-.09-1.13-.93-1.46l-.86-.34-.79,2Zm-.32.55,1.05-.34.59,4.09-1.22-.48Z" transform="translate(0.09 -0.02)"/><path class="cls-4" d="M54.88,112.06l1.26.4.12,3.43c0,.44,0,.91,0,1.36h0c.27-.36.52-.75.79-1.1l2.08-2.72,1.26.41-2,6.27-1-.32.93-2.88c.18-.58.54-1.38.78-2h0l-1,1.3-1.94,2.48-.67-.21-.12-3.15,0-1.62,0,0c-.13.6-.31,1.47-.5,2.05l-.93,2.87-1-.32Z" transform="translate(0.09 -0.02)"/><path class="cls-4" d="M64.14,114.86l-3.73,5.84,1.15.3.95-1.6,2.14.55,0,1.86,1.2.31-.43-6.92ZM63,118.58l.42-.72c.38-.63.75-1.3,1.11-2h0c0,.75,0,1.53,0,2.25l0,.84Z" transform="translate(0.09 -0.02)"/><path class="cls-4" d="M66.13,113.38a.91.91,0,0,1-1.74-.45l-.67-.05a1.58,1.58,0,0,0,3,.78Z" transform="translate(0.09 -0.02)"/><path class="cls-4" d="M70.8,120.26a1.29,1.29,0,0,1,1.41-1.2,1,1,0,0,1,.66.44l.06-.44.18-1,.64.12L73,122.08l-.52-.1v-.3h0a1.2,1.2,0,0,1-.84.21C71,121.76,70.63,121.15,70.8,120.26Zm1.71.94.24-1.26a.82.82,0,0,0-.5-.33c-.34-.06-.69.21-.8.77s0,.94.44,1A.71.71,0,0,0,72.51,121.2Z" transform="translate(0.09 -0.02)"/><path class="cls-4" d="M74.52,121A1.33,1.33,0,0,1,76,119.75a1.13,1.13,0,0,1,.9,1.47,1.53,1.53,0,0,1-.08.31l-1.72-.29a.79.79,0,0,0,.68.89,1.16,1.16,0,0,0,.66-.09l.15.43a1.8,1.8,0,0,1-1,.14A1.33,1.33,0,0,1,74.52,121Zm1.86.05c.07-.42-.07-.71-.44-.77a.69.69,0,0,0-.76.56Z" transform="translate(0.09 -0.02)"/><path class="cls-4" d="M80.83,124l.77-.72a2.57,2.57,0,0,0,1.62.93c.74.09,1.18-.2,1.24-.71s-.35-.76-.91-1.08l-.85-.49A1.88,1.88,0,0,1,81.57,120a2,2,0,0,1,2.4-1.6,2.91,2.91,0,0,1,1.93,1.07l-.68.67a2.14,2.14,0,0,0-1.36-.73c-.62-.07-1.06.18-1.11.66s.42.76.94,1l.84.47a1.83,1.83,0,0,1,1.12,1.92,2.09,2.09,0,0,1-2.57,1.68A3.4,3.4,0,0,1,80.83,124Z" transform="translate(0.09 -0.02)"/><path class="cls-4" d="M87.73,122.2c.13-2.13,1.4-3.31,3.11-3.21s2.83,1.45,2.69,3.57-1.4,3.36-3.11,3.25S87.6,124.33,87.73,122.2Zm4.6.28c.1-1.47-.52-2.41-1.55-2.47s-1.76.79-1.85,2.26.52,2.47,1.55,2.53S92.24,124,92.33,122.48Z" transform="translate(0.09 -0.02)"/><path class="cls-4" d="M95.94,119.36h1.32l1.14,3.24c.14.42.26.87.4,1.3h0c.15-.43.28-.87.43-1.29l1.18-3.21h1.33l-.08,6.6h-1.07l0-3c0-.61.11-1.49.18-2.1h0l-.54,1.53-1.12,3h-.7l-1.05-3-.51-1.54h0c0,.61.13,1.49.12,2.1l0,3h-1Z" transform="translate(0.09 -0.02)"/><path class="cls-4" d="M104.3,119.36l1.2-.06,2.22,3.61.74,1.38h0c-.08-.67-.21-1.5-.25-2.24l-.13-2.86,1.11-.05.3,6.59-1.2,0-2.21-3.61-.75-1.37h0c.09.7.22,1.49.25,2.22l.14,2.88-1.12,0Z" transform="translate(0.09 -0.02)"/><path class="cls-4" d="M114.77,118.67l4-.45.11,1-2.79.32.21,1.86,2.38-.27.11,1-2.38.27.31,2.74-1.16.13Z" transform="translate(0.09 -0.02)"/><path class="cls-4" d="M124.94,124l1.23-.2L123,117.58l-1.35.21-1.11,6.85,1.18-.18.23-1.85,2.19-.34Zm-2.85-2.3.11-.83c.1-.72.18-1.49.24-2.24h0c.31.68.61,1.4.93,2l.35.76Z" transform="translate(0.09 -0.02)"/><polygon class="cls-4" points="122.19 116.42 122.23 116.41 123.44 117.12 123.88 116.72 122.74 115.76 121.51 115.95 120.72 117.21 121.27 117.46 122.19 116.42"/><path class="cls-4" d="M126.76,117l1.18-.25,2.76,3.21,1,1.24h0c-.2-.65-.46-1.45-.61-2.17l-.58-2.81,1.09-.22,1.34,6.45-1.17.25L129,119.42l-.95-1.23h0c.2.67.45,1.43.6,2.15l.59,2.82-1.09.23Z" transform="translate(0.09 -0.02)"/><path class="cls-4" d="M135.63,116l-1.84.48-.25-1,4.81-1.27.25,1-1.84.49,1.44,5.42-1.14.3Z" transform="translate(0.09 -0.02)"/><polygon class="cls-4" points="141.46 111.93 142.75 112.45 143.13 111.98 141.87 111.2 140.67 111.58 140.08 112.95 140.66 113.11 141.42 111.94 141.46 111.93"/><path class="cls-4" d="M145.27,119l1.18-.37-4-5.64-1.31.41L141,120.3l1.14-.36,0-1.86,2.1-.67Zm-3.16-1.83,0-.84c0-.73-.05-1.5-.1-2.25h0c.4.63.81,1.29,1.23,1.89l.46.7Z" transform="translate(0.09 -0.02)"/><path class="cls-4" d="M146,111.75l1.13-.43,3.23,2.73,1.14,1.08,0,0c-.3-.61-.68-1.36-.94-2l-1-2.67,1-.4,2.35,6.16-1.12.43-3.24-2.74-1.14-1.06h0c.3.63.67,1.34.94,2l1,2.69-1,.4Z" transform="translate(0.09 -0.02)"/><path class="cls-4" d="M153,109l3.61-1.64.41.89-2.55,1.16.7,1.54,2.16-1,.41.89-2.16,1,.81,1.77,2.64-1.2.4.9-3.7,1.68Z" transform="translate(0.09 -0.02)"/><path class="cls-4" d="M158.65,106.33l1-.55,2.62,5,2.42-1.27.46.87-3.46,1.82Z" transform="translate(0.09 -0.02)"/><path class="cls-4" d="M163.85,103.51l3.39-2.07.51.84-2.39,1.46.88,1.44,2-1.23.51.84-2,1.23,1,1.67,2.48-1.51.51.84-3.48,2.12Z" transform="translate(0.09 -0.02)"/><path class="cls-4" d="M101.61,68.11h0a2.07,2.07,0,0,0-.57.06,4.91,4.91,0,0,0-.14,1.46v6.42a3,3,0,0,0,1.73-.45,2.31,2.31,0,0,0,.83-1.26,8.4,8.4,0,0,0,.28-2.27,7,7,0,0,0-.59-3.23C103,68.5,102.62,68.11,101.61,68.11Z" transform="translate(0.09 -0.02)"/><path class="cls-4" d="M68.44,74.08c-.54,1.46-1.08,2.93-1.61,4.39L70,78.41C69.45,77,68.94,75.52,68.44,74.08Z" transform="translate(0.09 -0.02)"/><path class="cls-4" d="M199.71,96.12c0-2.27,0-4,0-5.23,0-2.7,0-4.93.1-6.64a2.82,2.82,0,0,0-2.57-2.9l-.76-.06h-.24a2.73,2.73,0,0,0-.89.15v-.55c0-1.38,0-2.63,0-3.78s0-2.45,0-3.85c0-.42,0-.91,0-1.46l.28,0,.28,0,.76-.08a2.8,2.8,0,0,0,2.52-2.88c0-.62,0-1.39-.06-2.29s0-1.85,0-2.84c0-1.19,0-2.93.05-5.18s.1-4.59.18-7a2.79,2.79,0,0,0-1.19-2.4,2.82,2.82,0,0,0-2.67-.29c-.94.39-2,.78-3.27,1.17s-2.32.73-3.41,1l-2.64.75a41.4,41.4,0,0,0-1.21-5.38h0c0-.66-1.7-7.7-2.41-10a6.17,6.17,0,0,1-.42-2.76c.16-1-.16-1.92-.7-1.92a2,2,0,0,0-.9.62,2.05,2.05,0,0,0-.57,1.61,2.06,2.06,0,0,1-.24,1.11,63.26,63.26,0,0,0-18.69-18.36C145.31,6.4,123.79,0,100.05,0S54.8,6.4,39.19,16.71c-13.55,9-22.66,20.89-25,34.24A9.33,9.33,0,0,0,13,50.87,9,9,0,0,0,7,53.18c-2.35,2-4.08,5.16-5.32,9.59A56.38,56.38,0,0,0-.09,77.68,55.92,55.92,0,0,0,1.58,92.51c1.22,4.35,3,7.36,5.39,9.19a9.21,9.21,0,0,0,5.75,2,12.17,12.17,0,0,0,3.34-.49,10.27,10.27,0,0,0,4.87-3l.34-.38.05,0a2.81,2.81,0,0,0,1.67.55,2.56,2.56,0,0,0,.67-.08l.77-.19a2.79,2.79,0,0,0,2.13-2.8c0-1.5-.08-3.37-.1-5.7,0-1,0-2.16,0-3.45,1.38,1.5,2.88,2.95,4.46,4.36a2.81,2.81,0,0,0-.58,1.7v1a2.8,2.8,0,0,0,1.1,2.22,2.77,2.77,0,0,0,1.7.58,2.5,2.5,0,0,0,.72-.1c.93-.24,1.92-.48,3-.72.78.56,1.58,1.11,2.39,1.65,15.61,10.31,37.13,16.69,60.86,16.69s45.26-6.38,60.87-16.69c.69-.46,1.38-.94,2.05-1.41a10.87,10.87,0,0,0,2.16-.42A8.58,8.58,0,0,0,170,93.15a9.54,9.54,0,0,0,1.05-2.38,58.42,58.42,0,0,0,6.26-7v8.32c0,.79,0,1.38,0,1.81a2.94,2.94,0,0,0-1.39.66,2.83,2.83,0,0,0-.95,2.1v1.17a2.81,2.81,0,0,0,2.28,2.75c1.27.24,2.63.54,4.05.9s2.88.74,4.21,1.1l3.19.91c1.16.33,2.41.71,3.73,1.13s2.58.86,3.63,1.29a2.76,2.76,0,0,0,1.05.2,2.79,2.79,0,0,0,2.8-2.92C199.8,100.72,199.73,98.35,199.71,96.12ZM173.45,32.73a47.05,47.05,0,0,1,4.46,6.58,16.5,16.5,0,0,1-.81,2.43,5,5,0,0,1-1-.71,6.54,6.54,0,0,1-1.78-2.67,7.23,7.23,0,0,1-.91-3.9A14.11,14.11,0,0,1,173.45,32.73ZM100.05,3.66c23,0,43.83,6.14,58.86,16.08a63.76,63.76,0,0,1,13.83,12.12,3.22,3.22,0,0,0-.32.32,2,2,0,0,1-1.12.69c-.41,0-.65.31-1.22,1.51a16.48,16.48,0,0,0-.84,2c-.14.54-.44.66-.93.35a7.86,7.86,0,0,1-.88-2.09,7,7,0,0,1-.48-3c.1-.79,0-1.17-.21-1.43-.46-.45-.53-.44-1.27.27a1.77,1.77,0,0,0-.64,1.47,5.07,5.07,0,0,1-.32,1.61c-.18.41-.55,1.31-.83,2-.83,2.07-1.85,3.64-2.38,3.64a1,1,0,0,1-1-1c0-.39.06-.37.35.18.2.35.47.6.62.56a11.1,11.1,0,0,0,1.88-3.73c.14-.68.1-.72-2.07-1.92-2.48-1.38-3-2-2.65-2.83s-.09-1-.77-.32a1.72,1.72,0,0,0-.56,1c0,.66-.83,2-1.24,2s-.44,0,.22-1.36a11.72,11.72,0,0,0,.57-1.23,10.85,10.85,0,0,0-1.42-1.2c-.79-.6-2.64-2.24-4.13-3.66a49.45,49.45,0,0,0-3.71-3.27,56.39,56.39,0,0,0-8.71-4.05,60.1,60.1,0,0,1-9.56-4.57,9.4,9.4,0,0,0-4.81-1.94c-1.43-.15-1.69-.09-5.67,1.26a62.45,62.45,0,0,0-8.06,3.38,7.35,7.35,0,0,0-.07-.82,5.42,5.42,0,0,0-2-4,9,9,0,0,0-4.85-1.89,11,11,0,0,0-4.45.78A7.91,7.91,0,0,0,97,11.83,12.31,12.31,0,0,0,93.85,15a4.85,4.85,0,0,1-1.7,1.65,38.06,38.06,0,0,1-5.25,2.1c-1.66.63-3.69,1.36-5.29,2.11l-.36.18c-1-.81-2-1.72-2.75-2.5-2.93-2.84-4.13-3.67-5.92-4.1s-2.51-.89-4.51-2.57a9.88,9.88,0,0,0-4.81-2.57A119.64,119.64,0,0,1,100.05,3.66Zm66.79,68.9a1.13,1.13,0,0,1-1.12-1.07,22.38,22.38,0,0,0-.82-5.08,9.08,9.08,0,0,0-1.75-3.54,1.93,1.93,0,0,0-1.51-.77,2.42,2.42,0,0,0-.45,0,2.81,2.81,0,0,0-1.77,1.14,4.16,4.16,0,0,0-.75,2.64,5,5,0,0,0,.48,2.32,9.11,9.11,0,0,0,1.69,2.14l1.29,1.25c.63.6,1.33,1.29,2.12,2.07.33.31.64.63.95,1h0c.31.33.62.67.92,1h0c.33.39.66.78,1,1.18a14.32,14.32,0,0,1,2.13,3.94,15.62,15.62,0,0,1,.81,5.32c0,.21,0,.41,0,.61h0c0,.27,0,.54,0,.8v0c0,.25,0,.49-.08.73v.1c0,.22-.07.43-.1.64,0,0,0,.11,0,.16a5.59,5.59,0,0,1-.12.56l-.06.21c0,.16-.08.31-.13.47l-.09.26-.14.39-.16.34-.12.27a6.38,6.38,0,0,1-.32.57,6.91,6.91,0,0,1-4,3.15,9,9,0,0,1-2.72.4,11.73,11.73,0,0,1-2.37-.25,13.24,13.24,0,0,1-4-1.37,20.15,20.15,0,0,1-2.43-1.59l-.06,0,0,.27a1.11,1.11,0,0,1-1.12,1h-.19l-.77-.13a1.13,1.13,0,0,1-.93-1.18c0-.7.07-1.55.08-2.5,0-.56,0-1.24,0-2h0v0c0-.55,0-1.13,0-1.77s0-1.47,0-2.33h0V80.26a1.13,1.13,0,0,1,1.12-1.12h0l.77,0a1.12,1.12,0,0,1,1.09,1.07c0,1.13.16,2.22.31,3.27h0c.12.75.25,1.49.42,2.22.12.52.27,1,.43,1.49v0a10.93,10.93,0,0,0,1.3,2.63,4.78,4.78,0,0,0,.39.48h0a3.34,3.34,0,0,0,.32.33h0l.33.27h0l.35.23h0a4,4,0,0,0,1.29.46,4.24,4.24,0,0,0,.67.07,1.81,1.81,0,0,0,1.24-.42h0l.06-.06a1.37,1.37,0,0,0,.19-.22h0a.1.1,0,0,0,0,0,2.81,2.81,0,0,0,.4-1h0a5.7,5.7,0,0,0,.12-1.23,8,8,0,0,0-1.19-4.48c-.34-.5-.72-1-1.12-1.5h0c-.29-.34-.59-.69-.9-1h0c-.43-.47-.87-.93-1.36-1.38-.91-.86-1.72-1.65-2.47-2.41h0l-.15-.14-.37-.37a13.12,13.12,0,0,1-2.42-3.38,10,10,0,0,1-.94-4.5c0-.22,0-.42,0-.62h0c0-.2,0-.39,0-.58s0-.08,0-.12l.06-.5a.78.78,0,0,0,0-.14v0c0-.15.05-.3.08-.44s0-.15,0-.22.06-.26.1-.39a.83.83,0,0,1,0-.15l0-.1a3.38,3.38,0,0,1,.11-.34c0-.09.06-.18.1-.27v0l.12-.29.15-.34c0-.07.07-.15.11-.22s.19-.36.3-.54A10.81,10.81,0,0,1,155,60.76a13,13,0,0,1,4.46-1.84,12.34,12.34,0,0,1,2.31-.26,5.48,5.48,0,0,1,1.65.23,10.1,10.1,0,0,1,2.31,1h0a9.53,9.53,0,0,0,.14-1.07,1.1,1.1,0,0,1,.88-1l.77-.17a1,1,0,0,1,.24,0,1.09,1.09,0,0,1,.71.26.77.77,0,0,1,.18.18,1.13,1.13,0,0,1,.12.21h0a1.1,1.1,0,0,1,.11.5v.21c0,.22,0,.46,0,.7v.13c0,.27,0,.55,0,.85s0,.43,0,.66,0,.41,0,.62h0c0,.86,0,1.91,0,3.15,0,1.53,0,3.56,0,6.21a1.12,1.12,0,0,1-1,1.12l-.78,0ZM164,71.11l-.7-.68L162,69.18a7.57,7.57,0,0,1-1.38-1.72,3.43,3.43,0,0,1-.29-1.54,2.59,2.59,0,0,1,.4-1.61,1.16,1.16,0,0,1,.76-.52h.16a.75.75,0,0,1,.21.19,7.68,7.68,0,0,1,1.41,2.9A20.52,20.52,0,0,1,164,71.11ZM142.4,90.73a1.1,1.1,0,0,1-.35.92,1.14,1.14,0,0,1-.76.3l-.2,0c-1.14-.2-2.43-.4-3.83-.58l-2.45-.29h0l-1.38-.15-3.25-.33-1.28-.12h0l-1.59-.13h0l-1.43-.11-1.09-.08h0c-.88,0-1.72-.1-2.54-.13l-.33,0h-.25a1.12,1.12,0,0,1-1.08-1.12V88.2a1.14,1.14,0,0,1,.33-.8,1.1,1.1,0,0,1,.79-.32h0a5.37,5.37,0,0,0,1.12-.09h0a.36.36,0,0,0,0-.11v0q0-.14.06-.39v0c0-.23,0-.52,0-.9V69a5.72,5.72,0,0,0-.12-1.49h0a2.74,2.74,0,0,0-.85-.09h-.37a1.13,1.13,0,0,1-.68-.27h0s0,0,0,0a1.1,1.1,0,0,1-.34-.8v-.66a1.13,1.13,0,0,1,1.06-1.12l.4,0h0l.44,0c1.14-.07,2.26-.13,3.39-.21l2.57-.2,1.74-.15,3.25-.33c1.13-.12,2.31-.26,3.51-.41s2.44-.34,3.48-.52l.19,0a1.13,1.13,0,0,1,1.12,1.2c-.09,1.26-.15,2.49-.18,3.65s-.05,2.07-.05,2.69,0,1,0,1.47,0,.87.07,1.19a1.14,1.14,0,0,1-1.08,1.2l-.77,0h-.05a1.12,1.12,0,0,1-1.11-1,12.64,12.64,0,0,0-1.22-4.41,4.09,4.09,0,0,0-1.7-1.8A3.92,3.92,0,0,0,134,66.5l-.43,0-.44,0a3.78,3.78,0,0,0-1,.19s0,.13-.05.26h0a1.84,1.84,0,0,0,0,.26h0c0,.1,0,.22,0,.36h0v7.93a2.1,2.1,0,0,0,.75-.4l.08-.07h0a4.9,4.9,0,0,0,1.19-1.47,6.29,6.29,0,0,0,.69-1.87,1.13,1.13,0,0,1,1.05-.91l.78,0h.05a1.1,1.1,0,0,1,.8.34,1.14,1.14,0,0,1,.32.86c-.09,1.37-.13,2.41-.12,3.11s0,1.42,0,2c0,.3,0,.61,0,.94h0c0,.33,0,.69,0,1.05,0,.1,0,.2,0,.31v0c0,.69.07,1.63.15,2.84a1.07,1.07,0,0,1-.32.85,1.1,1.1,0,0,1-.8.34h0l-.78,0a1.11,1.11,0,0,1-1.05-1,6,6,0,0,0-.7-2.08A3.77,3.77,0,0,0,133,79.09a2.82,2.82,0,0,0-.87-.37v7.9a3.88,3.88,0,0,0,.1,1.1h0a3.34,3.34,0,0,0,.58.14l.37,0,1.06.11h.06l.22,0a3.24,3.24,0,0,0,1.49-.43,5.12,5.12,0,0,0,1.83-2.08,9.71,9.71,0,0,0,.69-1.6h0c0-.05,0-.1.05-.15h0a20.41,20.41,0,0,0,.72-3.14,1.07,1.07,0,0,1,.14-.39h0a1.06,1.06,0,0,1,.16-.21l0,0a1.46,1.46,0,0,1,.21-.16h0a.82.82,0,0,1,.24-.1l.06,0a1.17,1.17,0,0,1,.27,0h0l.78,0a1.16,1.16,0,0,1,.8.37.71.71,0,0,1,.12.18.61.61,0,0,1,.07.14s0,0,0,0a1.14,1.14,0,0,1,.07.41h0v.06c-.06.89-.1,2-.1,3.44,0,.63,0,1.54,0,2.72q0,.84.06,1.74h0C142.3,89.44,142.35,90.08,142.4,90.73ZM52.85,77.9c-.5-.3-.45-.35.15-.14a4.75,4.75,0,0,0,.46.14l.34,0h.08a1.54,1.54,0,0,0,.37,0s0,0,0,0a2.31,2.31,0,0,0,1.62-1.1v0a6.46,6.46,0,0,0,.68-1.16,3,3,0,0,0,.18-.51,1.82,1.82,0,0,0,.07-.25c0-.11.06-.22.08-.33s.05-.27.08-.4S57,74,57,74s0-.35.07-.53,0-.09,0-.13c0-.22,0-.43,0-.64v0a9.76,9.76,0,0,0-.08-1.91l0-.24c-.74-3.52-2.92-6.06-4.36-9.19A12.25,12.25,0,0,1,54,48.38a13.69,13.69,0,0,1,2.12-2.05l.25-.19h0l.28-.21.06-.05.27-.2h0l.28-.2,0,0,.28-.18h0l.33-.2h0l.35-.2h0l.91-.51h0l1.56-.81c1.85-1,5.07-2.37,7.83-3.46l.23-.09.37-.15.29-.11.32-.12.33-.13.27-.09.37-.14.2-.07.53-.19c.81-.27,2.34-.73,3.4-1l.89-.24.2-.06.81-.24a20.53,20.53,0,0,0,5.09-2.06A6.53,6.53,0,0,0,83.64,34a5.59,5.59,0,0,0,1.68-3.89c0-.49,0-.56.47-1.14a7.61,7.61,0,0,1,.84-.89,6.81,6.81,0,0,0,1.05-1.21c.58-.82,1.08-1.72,1.67-2.45l.09-.11a3.76,3.76,0,0,1,.38-.41,36.33,36.33,0,0,0,2-3.26c2.65-4.21,6.28-9.52,11.9-9.39a8.66,8.66,0,0,1,1.61.21,4.85,4.85,0,0,1,4.07,4.38q0,.57,0,1.17h0a7.56,7.56,0,0,1-.37,2.56,4.7,4.7,0,0,1-.17.45l-.06.11v0l0,0v0s0,0,0,0h0s0,0,0,0h0a.66.66,0,0,1,0-.13h0a.22.22,0,0,1,0-.08h0c0-.19.06-.45.09-.65a1.56,1.56,0,0,0,0-.2,10.29,10.29,0,0,0-.14-1.73c0-.1,0-.19,0-.28l0-.11a.24.24,0,0,0,0-.08l0-.09a.64.64,0,0,0,0-.07l0-.09,0-.05a.43.43,0,0,0,0-.07l0-.05,0-.05,0,0a.12.12,0,0,0-.08,0s0,0,0,0v0a.43.43,0,0,0,0,.05v0a.31.31,0,0,0,0,.1v.62c0,.14,0,.29,0,.42,0,.31,0,.56,0,.62a8.14,8.14,0,0,1-.12,1.44h0a9.71,9.71,0,0,1-.69,2.31l-.06.14c-.1.24-.21.49-.33.74s0-.26,0-.41.07-.47.1-.7l.06-.38,0-.14c.06-.39.11-.77.15-1.15a7.93,7.93,0,0,0,0-2,4.94,4.94,0,0,0-.38-1.28L107,16.7l-.11-.2-.11-.19a1.63,1.63,0,0,0-.11-.17c-.05-.08-.11-.15-.17-.23l-.1-.14c-.1-.12-.2-.24-.32-.36a4.37,4.37,0,0,0-6-.38c-3.82,2.83-5.45,5.14-8,9-1,1.55-2.1,2.84-3.13,4.32l-.11.15a3.77,3.77,0,0,1-.77.9c-.18.08-.27.35-.45,1.35-.51,2.81-1.22,4-3.28,5.36a26.62,26.62,0,0,1-7.53,3.34l-.07,0-1.2.36h0l-1.87.55-.29.08h0l-.26.08c-.58.18-2.15.63-3.49,1L68.13,42l-1.28.38a39.75,39.75,0,0,0-6.79,2.56,13.38,13.38,0,0,0-1.18.7c-.38.25-.77.53-1.14.8h0l-.53.41h0c-.18.14-.34.28-.49.41a6.6,6.6,0,0,0-.7.67c-3.63,4.23-4.61,9.29-1.79,14.24,1.51,2.64,3.56,5.45,4.09,8.49a7.81,7.81,0,0,1,.09,1.18,2.25,2.25,0,0,1,0,.26c0,.16,0,.32,0,.48s0,.15,0,.22l-.06.51,0,.12a7.85,7.85,0,0,1-.77,2.34h0a6.48,6.48,0,0,1-.57.92,3.13,3.13,0,0,1-.4.42.08.08,0,0,1,0,0l-.21.18-.07.06-.2.15-.11.07a1.22,1.22,0,0,1-.19.12l-.13.09-.17.09-.17.08L55.1,78l-.2.08-.1,0-.29.07a2.91,2.91,0,0,1-.65,0A2.81,2.81,0,0,0,52.85,77.9Zm-7.71-1.42c.24-.08.26-.13,0-.26v-5c.85,0,1.78,0,2.83,0a27.12,27.12,0,0,0,1.63,4.35l.14.27a3.65,3.65,0,0,0-.89.1c-.52.33-.19.54,1.28.68.24.48.5.94.77,1.41a2.8,2.8,0,0,0-2,2.27,15.56,15.56,0,0,1-1.26,4.33,16.09,16.09,0,0,1-2.12,3.55l-.42.48Zm5.32-29c1.2-.48,3-1.64,4.22-2.31,0,0,.82-.44,1.4-.72h0l.16-.07h0l.13-.06h0l.08,0h0l0,0h0l0,0v0l-.09.08a1,1,0,0,0-.25.36.76.76,0,0,1-.08.13,6.39,6.39,0,0,1-.79.79A13.73,13.73,0,0,0,50.72,53c-.15.56-2.07,1.61-2.7,1.94.08-1.71.57-6.53,0-7.8s-1.13-1-.05-1.6l.07,0,.2-.12.1-.06.23-.14.1-.07.39-.25.36-.24a25.44,25.44,0,0,1,4.16-2.18l1.85-.81h0l.56-.25h0q1.62-.7,2.58-1.08l.06,0,.22-.09.1,0,.17-.07.11,0,.13,0,.1,0,.11,0,.09,0,.07,0,.08,0H60l0,0a.11.11,0,0,1,0,.08s0,0,0,0A.16.16,0,0,1,60,40l0,.06-.06.08-.07.08-.08.09-.09.1-.11.1-.12.11-.11.1-.16.13L59,41l-.19.14a.52.52,0,0,1-.11.1l-.23.17-.1.08-.28.2-.05,0c-.75.53-1.65,1.12-2.6,1.68h0l-.66.38c-.62.35-5.18,2.9-5.22,3.46S50.22,47.54,50.46,47.45Zm2.86,23.46.23.13.13.08c.5.33,1,.65,1.51,1a2.48,2.48,0,0,0,.7.29l.32.06-.11.88-.25-.18a11.54,11.54,0,0,0-1-.63,8.29,8.29,0,0,0-2-.93,3.38,3.38,0,0,1-.52-.22l-.06,0a4.53,4.53,0,0,1-.46-.3h0a2.62,2.62,0,0,1-1.07-2c0-2.17,1.76-2.48,2.47-3.65.44-.72.41-.38.79.31a17.61,17.61,0,0,1,2.08,5.08h0a6.12,6.12,0,0,1,.1.86l0,.47-.34-.24-.1-.07h0l-.13-.08,0,0-.17-.1h0c-.36-.21-.87-.49-1.31-.69s-.89-.36-1-.24S53.15,70.8,53.32,70.91Zm2,4.83h0a.45.45,0,0,1,0,.18c-.12.23-.31.42-.35.37a4.49,4.49,0,0,1-.13-.55h0c0-.2-.09-.43-.13-.67h0l-.06-.34v0a3.06,3.06,0,0,0,0-.32v0c0-.09,0-.17,0-.25V74l0-.23v0c0-.05,0-.1,0-.13v-.1h.06s0,0,0,0l0,0,0,0,0,.05,0,0,0,.06,0,.06a.56.56,0,0,1,0,.08l0,.07a.2.2,0,0,1,0,.08.36.36,0,0,1,0,.09l0,.07s0,.08,0,.12l0,0A3.79,3.79,0,0,1,55.37,75.74Zm-3.84-.33a2.14,2.14,0,0,1-.13-.19l-.06-.1a1.91,1.91,0,0,1-.15-.28l-.21-.5.49-.29a2.18,2.18,0,0,1,.59-.28l.06,0,0,0,.08.1,0,0,.16.19,0,0,.16.22,0,.07.18.23,0,0,.23.32h0l.22.31,0,0,.22.3h0a11.21,11.21,0,0,1,.61,1,.54.54,0,0,1,.06.16s0,0,0,0v0l0,0,0,0-.1,0a1.58,1.58,0,0,1-.57-.08,4.36,4.36,0,0,1-1.69-1.15,2.75,2.75,0,0,1-.22-.26ZM49,67c.27.17.27-.25.75.17.22.18.32-.09.1.65a3.67,3.67,0,0,0,.56,3.28,3.31,3.31,0,0,0,.4.44h0a3.14,3.14,0,0,0,.5.38c1.94,1.19,1.26.29-.47,1.47-.29.16-.28-.08-.43-.47l-.15-.41h0c-.76-2-1.84-5.14-1.87-7.13,0-.68.55-.49,1.22-1,.49-.35.84-.24,1.36,0C52.19,65.07,47.86,66.24,49,67Zm1.46-10c0,.61-.31.58-.89.92a10.3,10.3,0,0,1-1.49.83c-.09-.45-.22-2.79.11-3,.75-.4,1.55-1,2.26-1.43C50.44,55.33,50.46,56,50.49,57Zm-2.16,3.33c.34-.19.77-.36,1.17-.58.86-.48.66-.57,1.14.66A2.82,2.82,0,0,1,51,62.07c0,.28-.2.28-.52.48-.12.08-2.12,1.41-2.14,1.17C48.25,63.19,48,60.48,48.33,60.32ZM75.89,26.39l-.18.14-.17.14,0,0-.15.12,0,0-.14.11-.06.05-.12.11-.07.06-.13.11-.07.06-.13.11-.08.07-.13.12-.09.08-.14.12-.09.09-.15.14-.1.09-.16.15-.11.1c0,.06-.11.11-.17.17l-.12.11-.18.18-.14.13-.19.19-.2.19-.16.15-.28.28-.11.11-.44.42a54.42,54.42,0,0,0-5.16,5.49l-.36.44-.09.11-.36.46h0l-.38.49-.08.11c-.26.33-.52.67-.76,1l-.07.09-.71,1,0,.06-.31.45h0c-.29.42-.53.77-.68,1a2,2,0,0,1-1.07,1c-.28.13-.29.12-.2-.08s1.07-1.72,1.92-2.93h0l.43-.61h0l.4-.55a48.94,48.94,0,0,1,6.8-7.51A45.26,45.26,0,0,1,75,26.77l.37-.28,0,0,.29-.22h0a3.28,3.28,0,0,1,1-.6C76.79,25.67,76.6,25.85,75.89,26.39ZM76.37,30a5.85,5.85,0,0,1-.55.64h0l-.43.46c-1.44,1.5-2.25,2.37-3.25,3.48-.49.54-1.27,1.38-1.73,1.86a8.68,8.68,0,0,0-.84,1c0,.08-.14.18-.18.14a23.7,23.7,0,0,1,1.92-2.67c.33-.38,1-1.06,1.42-1.51s1.24-1.24,1.74-1.76l.35-.35.06-.06.29-.28,0,0,.31-.28h0l.3-.26h0C76.15,30.09,76.38,29.94,76.37,30Zm7.71-1.67a3.65,3.65,0,0,0,.55-2.14c0-.35.13-.54.29-.32A2.09,2.09,0,0,1,85,27.14a2.73,2.73,0,0,1-2.15,2.33,3.37,3.37,0,0,1-2.2-.17,3.48,3.48,0,0,1-1.2-1.45c0-.16,0-.14.28.12C81.25,29.45,83.06,29.61,84.08,28.36Zm-1.86-2.23c.92-.1,1.5.36,1.36,1.08a1,1,0,0,1-.78.94,1.83,1.83,0,0,1-.85.05C80.61,27.91,80.83,26.27,82.22,26.13Zm1.91,5.64a4.34,4.34,0,0,1-.85,1.37,12.5,12.5,0,0,1-2.56,1.8c-.25.08-.25.07,0-.19s2.08-2,3-2.79C84.18,31.54,84.21,31.52,84.13,31.77Zm65,45.8a1.44,1.44,0,0,0,.76.27,2.49,2.49,0,0,0-.57.41,2.81,2.81,0,0,0-.85,2v1.29a13.72,13.72,0,0,0-2.32-.9L143.83,80a2.78,2.78,0,0,0-.59-1.06,2.83,2.83,0,0,0-1-.69c1.3.07,1.63,0,1.82-.23s.19-.37,0-.55a7.26,7.26,0,0,0-4.69-.55c0-.39,0-.8,0-1.24l.32,0h.12l.77,0a2.8,2.8,0,0,0,2.68-3c0-.3,0-.68-.06-1.13,2,.2,4.59.2,4.46,0-.25-.42-2.79-.73-4.49-.74v-.66c0-.36,0-.84,0-1.41a3.52,3.52,0,0,0,2,.41,9.13,9.13,0,0,1,2.38.33c.47.18.69.24.91.15a11.86,11.86,0,0,0,1.12,5.22,12.45,12.45,0,0,0,1.14,1.92,4.18,4.18,0,0,0-1.3.22C149,77.19,148.9,77.28,149.14,77.57Zm-13.25,7.58h.18a2.85,2.85,0,0,1-.89,1,1.63,1.63,0,0,1-.73.22l-.67-.06v-.61l.46-.14,1.36-.42A1.36,1.36,0,0,0,135.89,85.15Zm-2.11-.36V84a3,3,0,0,0,.59.58Zm5.62-7a1.48,1.48,0,0,0,.55.26,2.61,2.61,0,0,0-.55.14Zm-17.7-15c.11-.15.21-.31.33-.46a9.72,9.72,0,0,1,4.17-3l.41-.12-.06,1.08a15.51,15.51,0,0,0,0,2.14l-.84.06C124.31,62.67,123,62.75,121.7,62.82Zm-2,5.47a2.63,2.63,0,0,0,.68.48c-.38,1.26-.74,2.57-1,3.78-.13.54-.25,1.06-.36,1.54v0q-.06.31-.12.6a.44.44,0,0,0,0,.1c0,.22-.09.42-.12.61-.26,1.44-.66,2.85-1,4.29l-.07.28c-.08.38-.18.89-.33,1.41h0A8.2,8.2,0,0,1,117,82.5h0a1.92,1.92,0,0,1-.18.35v0a2.23,2.23,0,0,1-.2.3l0,0a1.21,1.21,0,0,1-.19.2l-.06,0a.72.72,0,0,1-.24.14l-.36.13-.11,0-.18.06-.11,0-.13,0-.08,0-.1,0h-.17l0,0s0,0,0,0l0,0v0a.09.09,0,0,1,0,0,.06.06,0,0,1,0,0,.19.19,0,0,1,0-.07s0,0,0,0l.06-.1,0,0c.15-.26.39-.61.64-1.06l.18-.33c.15-.3.27-.6.4-.91s.25-.66.36-1a.14.14,0,0,0,0-.07c.11-.33.21-.67.3-1l0-.07c.09-.35.17-.7.25-1.06h0c.3-1.37.51-2.76.75-4.15,0-.07,0-.15,0-.22.07-.4.15-.79.23-1.18v0a45.61,45.61,0,0,1,1.2-4.66A2.63,2.63,0,0,0,119.75,68.29Zm-8.92,25.58a17.34,17.34,0,0,0-5,.28q-.5.06-1,.09l-.37,0-.61,0h-.47l-.49,0-.56,0-.35,0a20.55,20.55,0,0,1-3.36-.58h0a22.87,22.87,0,0,1-4.94-1.88l-.23-.12q-.62-.33-1.2-.69l.86,0,3.38-.07h3.08c1,0,1.75,0,2.36.08h.19a2.82,2.82,0,0,0,1.47-.42c.39,0,.77-.12,1.14-.2l0,0a10.65,10.65,0,0,0,4.83,1.17h.53a12.56,12.56,0,0,0,3-.35,8.16,8.16,0,0,0,3.47-1.88,2.8,2.8,0,0,0,.94-2,2.83,2.83,0,0,0-.85-2.07l-.31-.3a8.39,8.39,0,0,1,2.64.32l.74.25.15.06.44.19a3,3,0,0,0-.72.51,2.84,2.84,0,0,0-.82,2v.65A2.81,2.81,0,0,0,121,91.56,7.91,7.91,0,0,1,119.14,93c-1.65.93-4.52,1.57-6.43,2.36-.42.18-1.37-.33-1.81-.49-1.09-.4.17-.19.64-.15C116.3,95.08,113.45,94.13,110.83,93.87ZM86.26,84.2c-.28-.64-1.34-2-1.81-.79a4.1,4.1,0,0,0-.17.56c0,.07,0,.13,0,.2s0,.27-.07.42v0c-.24-.58-.48-1.15-.71-1.72.05-.16.11-.31.16-.47l0-.08c.07-.21.14-.42.2-.64s.14-.53.19-.8.1-.5.13-.75a.13.13,0,0,0,0-.06c0-.23,0-.46.06-.68a2.35,2.35,0,0,0,0-.26c0-.17,0-.33,0-.5a6.36,6.36,0,0,0-.08-.75,1.36,1.36,0,0,1,0-.87c.15-.36-.93-.58-1.13-.64a5.1,5.1,0,0,1-2.93-1.7c-1.4-3.53-2.73-7-4-10.41a2.8,2.8,0,0,0-2.62-1.81l-.47,0c0-.51-.08-1.11-.11-2l0-.6.63.07c1.19.12,1.11-.49-.11-.83a2.47,2.47,0,0,1-.89-.39c-.11-.08-.45,0-.86-.14a7.82,7.82,0,0,1-4.05-3.33c-.47-.87.74-2,1-2.06h0s0,0,0,0h0v0a.25.25,0,0,1,0,.07l-.08.16c-.22.53-.12,1,.23.82l.11-.09h0l.11-.12,0,0a1,1,0,0,0,.12-.15l0,0,.16-.24c.09-.15.17-.28.23-.4.49-.82.4-.67,1.72,0,3.22,1.53,5.43,3.22,9.22,2.68A4.68,4.68,0,0,0,82,55.43l.57-.28.27.36c.15.2.32.36.39.35s0-.9-.16-1.09,1.58-1.67,2.08-2.06l0,0,.06,0,0,0a2.39,2.39,0,0,1,.22-.12,4.44,4.44,0,0,1,4.24-.23c2.2,1,2.32,1.27,4.81,1.65,1.12.18.53.31-.29,1.27-1.08,1.27-2.06,2.63-3.16,3.89-1.47,1.72-.91,1.63.46.22C93.12,57.71,94.45,56,96,54.37c.26-.27,1.17-1,1.55-.83-.56.81-2.06,2.2-2.86,3.1a55.53,55.53,0,0,0-5.51,7.16,2.73,2.73,0,0,0-.56.4,2.8,2.8,0,0,0-.88,2v.11c-.34.68-.67,1.36-1,2.05-.11.3-.23.6-.33.9h0c-.11.3-.21.61-.3.91s-.24.81-.34,1.23A21.21,21.21,0,0,0,85.3,74a.45.45,0,0,1,0,.11c0,.24-.05.48-.06.72,0,.08,0,.15,0,.23s0,.41,0,.62a2.62,2.62,0,0,0,0,.28v.59c0,.1,0,.2,0,.3s0,.41,0,.62,0,.18,0,.27c0,.3,0,.59.09.9s.1.73.18,1.12h0q.12.57.3,1.17c.07.24.15.48.23.72a16.63,16.63,0,0,0,1.35,2.94h0c.18.31.37.6.57.88a4.47,4.47,0,0,0,.32.41,2.79,2.79,0,0,0-.52,1.1l-.1-.14-.14-.21-.16-.26a2,2,0,0,1-.14-.25h0c-.13-.22-.25-.45-.37-.7h0C86.66,85.07,86.47,84.66,86.26,84.2ZM83,79.5c0,.15-.07.31-.11.47l0,.17c0,.12-.08.25-.13.38l-.12.31-.43-1c.15-.36.29-.7.41-1l.22-.55C83.29,77,83,79.39,83,79.5Zm-1.46-1.35a.08.08,0,0,1,0,0c-.06-.15-.13-.31-.19-.47l.3-.55.08-.12C81.88,77.09,81.8,77.59,81.56,78.15Zm-18.2-3.82c-.12,0-.24,0-.34,0-.49,0-.69.09-.5.35a.85.85,0,0,0,.61.27c-.08.21-.15.43-.23.64l-.23,0h0l-.55-.1-.1,0-.51-.11-.16,0-.52-.13-.18,0-.72-.2L59,74.65l.17-1.08c0-.25.07-.5.09-.74s0-.43,0-.65v-.07a10.43,10.43,0,0,0-.09-1.38c-.36-2.71-1.8-5-3.3-7.58l1.86-1.38a34.6,34.6,0,0,1,5.68-3.51c3.14-1.58,2.8-1.18.6.72-.9.77-1.65,1.43-1.67,1.48s-.63.66-1.36,1.36A19.63,19.63,0,0,0,58.12,65c-.08.31.24.28.86-.09s4.11-3.16,5.91-4.74c.64-.56,1.84-1.81,2.74-1.86.3,0,.25-.06.12.45-.39,1.53-3.37,6-4.52,7.23a9.13,9.13,0,0,0-1.29,1.53.26.26,0,0,0,.13.16c.59.38,3.88-3,5.93-6.11.68-1,.79-1.15,1.11-1.26a1,1,0,0,1,.46-.07c.2.07.23.79.09,1.89a2.8,2.8,0,0,0-2.34,1.75C66,67.41,64.64,70.86,63.36,74.33Zm-3.59,10a.42.42,0,0,1,0,.12c-1.07-1.38-1.91-2.78-2.92-4.38-.86-1.34-.86-1.35-.65-1.5s.21-.11.25,0a28.24,28.24,0,0,0,3.45,5.49C59.83,84.2,59.8,84.27,59.77,84.35Zm-.52,1.38-.1-.1s-.17-.19-.07-.22a.43.43,0,0,1,.23.17Zm-4.08-5.85.14.18.7.87-.24.1-.51.23c0-.13,0-.28,0-.4A3,3,0,0,0,55.17,79.88Zm1,2.06A14.48,14.48,0,0,1,58,84.43l.24.48-.59-.48a17.37,17.37,0,0,1-1.42-1.38,6.88,6.88,0,0,1-.82-1C55.45,81.86,56,81.78,56.18,81.94Zm4.5-1.25c-.14-.35-.15-.43,0-.21L61,81l-.05.16C60.82,81,60.74,80.83,60.68,80.69ZM54.58,56.5a42.38,42.38,0,0,1,2.11-6l.61-1.36c.07-.16.14-.31.21-.44s.08-.18.12-.26l.06-.12c.05-.09.09-.18.13-.26l0-.06.13-.23v0c0-.07.08-.14.12-.2v0l.11-.17h0l.1-.13h0l.14-.16.37-.3h0c.4-.29.26.12-.45,1.53-.26.51-.51,1-.75,1.56L57.16,51a1.11,1.11,0,0,1-.07.16c-.15.37-.31.74-.45,1.11-.33.84-.62,1.65-.85,2.38a46.36,46.36,0,0,0-1.26,5.3c-.11.63-.19.24-.36-.27C53.86,58.78,54.35,57.39,54.58,56.5Zm-.91-1.43A9.92,9.92,0,0,1,54.15,53c.14-.33.82-1,.58-.2C54.72,52.82,53.81,55.63,53.67,55.07Zm1.59-4.39A7.21,7.21,0,0,1,55.7,50l.17-.21-.09.3a3.05,3.05,0,0,1-.66,1.05C55,51.15,55.11,51,55.26,50.68ZM71.62,62.35,71,62.28l0-.07c.09-.42.16-.73.22-.94l0-.05C71.4,60.71,71.48,61.05,71.62,62.35Zm.49-15.47c.23.13.47-.16.57-.69a4.87,4.87,0,0,1,.77-1.82l1-1.31c.36-.48.86-1.1,1.23-1.51l0,0,.18-.2c.58-.63.7-.72,1.08-.84l.42-.13-.43.47-.29.33-.07.09c-.09.1-.17.21-.26.32l0,.06c-.22.29-.46.61-.69.94a16,16,0,0,0-2,3.35l-.1.46.29-.21A7.05,7.05,0,0,0,74.74,45c.42-.63.77-1.16,1.07-1.59h0l.28-.4,0-.07.26-.36h0c.07-.11.14-.2.21-.3l.05-.06.19-.26h0l.17-.22,0-.05c0-.07.11-.13.16-.19h0l.16-.17,0,0,.15-.17.3-.3,0,0,.25-.24,0,0,.23-.21,0,0,.24-.18h0a8.64,8.64,0,0,1,1.85-.89c3-1.2,5.18-2.6,6.24-4A8.12,8.12,0,0,0,88,32.92c.11-.39.16-.43,1.77-1.65.53-.4.9-.68,1.23-.91l.06,0,.24-.16h0l.25-.15.06,0,.26-.15h0l.3-.16.08,0,.34-.18h0l.42-.21.11-.06.48-.23a36.09,36.09,0,0,1,5.29-2.34c3.16-1,8.16-1.73,11.24-.14.84.43,2.61,3.33,1.8,2.82s-1.26-1-2.19-1.44A12.16,12.16,0,0,0,102.3,27a1.22,1.22,0,0,0-.39.15c-.18.18-.07.2,1.14.23a13.67,13.67,0,0,1,6.26,1.48,4.5,4.5,0,0,1,2.15,1.73l.13.33-.64-.3a14.28,14.28,0,0,1-1.36-.74,13,13,0,0,0-5.86-1.64c-.16,0-3.06,0-2.87.41,0,.07,2.29.07,2.5.09a13.23,13.23,0,0,1,6,1.82c1.13.81-3.84-.86-3.85-.87-.3-.07-.6-.14-.89-.19l-.31,0-.54-.08c-.12,0-.24,0-.37,0l-.45,0h-.8c-.15,0-.28,0-.42,0l-.36,0-.43.07-.33.05-.43.1-.32.08a3.06,3.06,0,0,0-.43.13c-.1,0-.2.05-.3.09s-.29.1-.44.15l-.29.11-.44.19-.27.11-.45.22-.26.12-.47.25-.24.13-.49.27-.22.13-.52.3-.2.12-.57.36-.14.08-.71.45-.08.06a27.94,27.94,0,0,0-4,2.86l-.29.31.47-.13a20.67,20.67,0,0,0,4.22-2.33L94.79,33l.12-.06.64-.39.18-.1.59-.33.23-.12c.18-.1.36-.2.55-.29l.26-.13.53-.24.29-.13.5-.21.32-.12.49-.17.34-.11.47-.13c.12,0,.25-.06.37-.09l.46-.1.38-.06.45-.06.41,0,.43,0h.86l.46.06.41,0,.5.11.37.08c.2.05.39.12.59.19l.31.09c.3.11.6.24.91.38.63.3.91.7.4.36a8.08,8.08,0,0,0-3.94-.83c-.85.06-4.32.84-4.82,1.31-.34.32.41.28.51.27,2.45-.34,3.28-1.12,5.93-.62.23,0,2,.38,1.74.83s-.9.77-1.37,1.6c-.12.2-1.24,2.26-.56,2.26a12.57,12.57,0,0,0,.66-1.17c1.58-2.22,4.42-2.2,6.39-.57,2.28,1.87,4.44,5.92,7.41,6.7.42.11-.74,0-.83,0-3.18-.64-5.06-3.83-7.28-5.9-1.52-1.41-4.57-1.52-5.38.71,1.72-.53,2.62-.77,3.91.85a2.8,2.8,0,0,1,.27.4.83.83,0,0,1,.07.13,1.77,1.77,0,0,1,.15.31,1.11,1.11,0,0,1,.07.16l.12.32,0,.17c0,.13.07.26.11.39a.43.43,0,0,0,0,.11c0,.18.08.35.11.53s0,.1,0,.15l.06.41,0,.21c0,.12,0,.25,0,.37l0,.25a16.32,16.32,0,0,0,.62,3.49l.08.21c.31.84.31.84,0,.45a5.8,5.8,0,0,1-.94-2.48h0l-.06-.34V42c-.13-.81-.21-1.65-.37-2.43v-.06c0-.16-.07-.32-.11-.47l0,0a3.68,3.68,0,0,0-.15-.47l0-.08c-.05-.13-.1-.25-.16-.38a.41.41,0,0,0,0-.09c-.07-.14-.15-.28-.23-.41l0-.06-.25-.33-.09-.09a2.9,2.9,0,0,0-.36-.34,2.69,2.69,0,0,0-3.62.39c-.38.45.52,0,.84-.06a7.43,7.43,0,0,1,1-.22c.15,0,0,.1,0,.31s-.12.38-.19.58v0a31.41,31.41,0,0,1-1.5,3.31l0,.08a52,52,0,0,1-3.72,6.18c-.35.47-1.82,2.5-2.27,2.6-.61.15-2-1.13-2.45-1.57-1.3-1.63-.85-3.5-.22-5.28a8,8,0,0,0,.7-3.38,2.9,2.9,0,0,0-.19-.77,3.66,3.66,0,0,0-.5-.83c-.53-.71-1.19-1.2-1.34-1s.09.33.58.94a2.88,2.88,0,0,1,.78,1.35,3.29,3.29,0,0,1,.06.78v.08a1.37,1.37,0,0,1,0,.19.88.88,0,0,1,0,.16c0,.08,0,.16,0,.25l-.06.23,0,.15c0,.13-.07.26-.11.4-.11.35-.25.75-.41,1.21C95.1,46,95,47.79,97.72,50c1.15.92-1.41-.59-1.79-1a4.45,4.45,0,0,1-.82-4.12c.07-.39.16-.77.25-1.16l.19-.84a8.49,8.49,0,0,0,.18-1.23,2.46,2.46,0,0,0-.46-1.83,3.06,3.06,0,0,0-1-.86l-.08,0h-.08c-.28,0-.34.25-.14.52a1.07,1.07,0,0,1,.16.32l0,.08A3,3,0,0,1,93.81,42c-1.09,1.72-4.33,2.49-6.66,3.57-.23.11-.44.21-.64.32l-.14.08a5.65,5.65,0,0,0-.58.36c-.21.15-.4.3-.59.46L85,47l-.35.32-.18.17-.4.42-.21.26-.16.21-.22.32a.83.83,0,0,0-.08.12,8,8,0,0,0-.46.81,12.48,12.48,0,0,0-.7,1.68,6.53,6.53,0,0,1,2.39-4.54l0,0c.16-.13.32-.26.5-.39h0c.16-.12.32-.24.49-.35l.13-.09.55-.35c.64-.39,1.34-.75,2-1.09h0l.55-.26h0l.52-.25c3.08-1.47,3.84-2.17,4-3.68a1.82,1.82,0,0,0-.4-1.51s0,0-.06,0a.12.12,0,0,0-.13,0h0a.14.14,0,0,0,0,.07.36.36,0,0,0,0,.11s0,0,0,.06,0,.19,0,.31a3,3,0,0,1-.23,1.68c-.31.62-1.06,1.12-3.23,2.16h0l-.32.15c-.85.4-1.73.83-2.58,1.31a10.68,10.68,0,0,0-4.08,3.64,6.7,6.7,0,0,0-.9,2.81c-.06.59-.24.57-.89.73a8.28,8.28,0,0,1-6.37-1.45c-1.36-1.1-1.86-2.24-2.92-3.34l-.09-.07c-.07,0-.09-.25,0-.49a6.74,6.74,0,0,0,.1-.85c0-.21,0-.33,0-.25a.63.63,0,0,0,0,.14l.07.18v0c.07.16.16.34.25.52h0A4.12,4.12,0,0,0,72.11,46.88ZM96,23.51h0c.34-.19.7-.36,1.07-.53l.15-.06.55-.24.51-.21.21-.08.7-.27c.36-.13,1.42-.54,2.43-.82h0c.89-.24,1.74-.37,2-.1s-.6.17-.88.22c-2.81.52-6.55,2.52-9.25,3.72A17.74,17.74,0,0,1,96,23.51Zm.9-3.62c1.7-1.32,4.27-2.61,6.48-2.32,1.41.36,1.88,1,1.1.67-2.91-1.19-6.47,1.44-8.76,3C94.4,22.14,96.79,20,96.93,19.89Zm4.48,4c-2.46.54-4.2,1.53-6.5,2.2l-.19.06h-.06l-.1,0h-.18s0,0,0,0h0s0,0,0,0h0l0,0,0,0,.06,0,0,0,.08-.05,0,0,.31-.16h0l.15-.08.05,0,.16-.07,0,0,.19-.09h0c1-.43,2.08-.92,2.09-.92A22.13,22.13,0,0,1,101,23.55l.49-.1.24,0,.36,0,.19,0h.51l.19,0C103.92,23.52,101.57,23.86,101.41,23.9ZM113.32,86v0h.2l.11-.08a1.1,1.1,0,0,1,.74-.28,1.13,1.13,0,0,1,.79.31l.44.43a1.17,1.17,0,0,1,.34.83,1.15,1.15,0,0,1-.38.81,6.52,6.52,0,0,1-2.76,1.5,10.74,10.74,0,0,1-2.63.3h-.47a11.43,11.43,0,0,1-2.41-.32h0a8,8,0,0,1-.87-.28,6.33,6.33,0,0,1-.79-.36l-.41-.26h0a4.62,4.62,0,0,1-1.81-3.17l-.51-3.08a15.66,15.66,0,0,0-.48-2.1,3,3,0,0,0-.57-1.13.66.66,0,0,0-.56-.2h-.4v5.94a5,5,0,0,0,.12,1.3l0,0a4.71,4.71,0,0,0,1.22.19,1.1,1.1,0,0,1,1,1.11v.62a1.16,1.16,0,0,1-.35.82,1.14,1.14,0,0,1-.77.3h-.07c-.65,0-1.48-.07-2.46-.08H96.53c-1.16,0-2.31,0-3.41.07h-.26c-.9,0-1.67.08-2.27.14h-.1a1.11,1.11,0,0,1-1.12-1.12v-.62a1.14,1.14,0,0,1,.1-.45h0a.84.84,0,0,1,.14-.24l0,0a1.26,1.26,0,0,1,.2-.2h0a.94.94,0,0,1,.22-.12l.06,0a1.31,1.31,0,0,1,.27-.06l.31,0h0l.23,0h0a4.07,4.07,0,0,0,.67-.14.12.12,0,0,0,0,0s0,0,0-.06h0a1.06,1.06,0,0,0,0-.14h0v0h0a6.37,6.37,0,0,0,.08-1.13V69.57c0-.26,0-.48,0-.65h0v0h0a.76.76,0,0,0,0-.15v0h0a.34.34,0,0,1,0-.1h0v0s0-.07,0-.1v0h0a.29.29,0,0,0,0-.09h0a.44.44,0,0,1,0-.1l0,0h0A3.69,3.69,0,0,0,90.42,68a1.13,1.13,0,0,1-1-1.12v-.62a1.14,1.14,0,0,1,.35-.82,1.11,1.11,0,0,1,.77-.3h.07l2.57.13c1,0,2.12.07,3.2.08h1.28l1.94,0h.31l1.91,0h.29l1.13,0h.28l1,0,.25,0,.7.06.36,0,.76.11.38.06.42.08.38.09.22.05.42.11.31.1.42.14.24.09.61.27a5.64,5.64,0,0,1,.64.37l.19.13c.14.09.26.19.39.29l.19.16h0a3.68,3.68,0,0,1,.39.4l.26.31,0,0,.08.12a5,5,0,0,1,.67,1.34h0a6,6,0,0,1,.3,1.88,6.57,6.57,0,0,1-.61,2.73,6.34,6.34,0,0,1-2.09,2.43,7.54,7.54,0,0,1-1.43.82l.45.23a5.34,5.34,0,0,1,2.75,3.6h0a.29.29,0,0,1,0,.09l.24,1.09h0c.16.73.32,1.45.47,2.16,0,.12.06.23.08.33l0,.08a1.05,1.05,0,0,0,0,.19s0,0,0,.06,0,.11,0,.15l0,0c0,.05,0,.09,0,.13h0A.81.81,0,0,0,113.32,86ZM88.77,84.22a10.13,10.13,0,0,0,1.32.23v.4a2.71,2.71,0,0,0-.65.18A9.31,9.31,0,0,1,88.77,84.22Zm-.88-14.35a.63.63,0,0,0,.89-.37.75.75,0,0,1,.18-.31,2.84,2.84,0,0,0,1.13.44v1.54a3,3,0,0,0-.33-.19,7.41,7.41,0,0,0-2.08-.58Zm1.94,1.42h.26V75.4a2.61,2.61,0,0,1-.33-.08c-.92-.27-2.62-.89-2.75-2a5.36,5.36,0,0,1,.34-1.94Zm-2.47,5.36a7.49,7.49,0,0,0,2.73.61v.81c-1.56-.58-2-.32-3.3-1.75C86.53,76,87.2,76.55,87.36,76.65Zm2.73,2.17v.57c-.78-.37-1.8-.58-2.7-1A10.88,10.88,0,0,1,90.09,78.82Zm0,1.61v1a5.87,5.87,0,0,1-1-.26c.23-.42-.48-.58-.84-.92C88.4,80.25,89.22,80.35,90.09,80.43Zm0,1.72V83a4.69,4.69,0,0,1-1-.46c-.09-.07-.84-.59-.86-.65C88.49,81.88,89.35,82.08,90.09,82.15Zm5.16-32.76c.28.4-.24.15-.73,0-2.87-.62-3.24-1.94-6.59-1.31a8.21,8.21,0,0,0-3.77,1.74l0,0-.54.45c-.25.22,0-.06.06-.29a6.19,6.19,0,0,1,.3-.57l.12-.19.22-.33.18-.22a2.43,2.43,0,0,1,.2-.25c.07-.08.14-.17.22-.25L85,48.1a8.71,8.71,0,0,1,1.63-1.27h0a10.36,10.36,0,0,1,.93-.5c2.06-.94,6.12-2,7-4.26l.07-.17c.11-.33.23-.66.26-.73s0-.05,0-.05h0s0,0,0,0h0v.11h0c0,.05,0,.11,0,.18h0c0,.45-.2,1.3-.37,2.07C94.08,45.8,93.82,47.36,95.25,49.39ZM83.63,51.48a.3.3,0,0,0,.11-.06l.48-.31.12-.08.4-.28A7.2,7.2,0,0,1,89,49c2.54-.08,5.21,2.14,7,1.54.51-.18,1.5.33,2,.53.71.26.24.3-.23.38-3.66.62-4.84-1.06-8-1.4a8,8,0,0,0-5.19,1.37c-.27.16-.54.34-.81.52l-.59.4c-.31.2-.25.21-.16-.34C83.08,51.6,83.23,51.71,83.63,51.48ZM107.15,39.2c0-.1.08-.21.13-.31s.13-.35.19-.53.07-.18.1-.27c.09-.27.17-.53.24-.8.12-.45.48-.66.25.29a27.54,27.54,0,0,1-1.14,3.54c-.12.29-.24.56-.36.83l-.06.12c-.11.26-.23.5-.34.73h0a38.77,38.77,0,0,1-4.34,6.48c-.63.85-.41,1-1.58.93a28.17,28.17,0,0,0,4-5.38l.3-.53c.34-.61.7-1.24,1-1.88.16-.29.31-.59.47-.89h0C106.45,40.77,106.83,40,107.15,39.2Zm1.92,0c.33-1.26.6,1.46.61,1.59a11.86,11.86,0,0,0,.73,3.07.91.91,0,0,1-.13.16l-.63.69-1.18-.55a12.37,12.37,0,0,1-1.11-.59l.18-.33A14.61,14.61,0,0,0,109.07,39.17Zm-5.7,21.77a7.46,7.46,0,0,1-1.64-2.31c-.25-.7-1.87-3.6-.92-3.87.18-.06,1.42,1,1.73,1.17s3.3,2,3.43,1.36-4.39-2.85-4.62-3.65c-.1-.37.24-.55.5-.72s1.21.24,1.62.36c1,.31,5.48,1.25,6.19.2.39-.58-1.63-.59-1.88-.6a13.59,13.59,0,0,1-4.13-.67c-.48-.26.7-1,1.09-1.15.71-.19,1.48-.31,2.23-.52,1.39-.38,3.24-.54,4.71-.78,1.28-.22,2.6-.45,3.32.82.87,1.53-.88,3.22-2,4.08s-3.61,2.51-4.35,3.69c-1.19,2.09-.42,4.39-.87,5.76a26.64,26.64,0,0,0-5.15-.5A29,29,0,0,1,99,58.52a4.59,4.59,0,0,1-1-2.85c1.83,1.93,3.56,5.53,5.91,6.6C105.16,62.82,103.49,61.08,103.37,60.94Zm10.89,7.87.53,0c.75,0,1.36,0,1.36.13a3.21,3.21,0,0,1-.82.93,2.66,2.66,0,0,0-.62.73A7.14,7.14,0,0,0,114.26,68.81Zm1.64-21.42-.22.53-.73-.46a2.33,2.33,0,0,1-.66-.74,4.73,4.73,0,0,0,.91-.08,2.75,2.75,0,0,0,1.19-.44Zm-1.53,33.85-.38.05h-.13l0-.11A7,7,0,0,0,112,77.68a7.62,7.62,0,0,0,2-2.62,8.09,8.09,0,0,0,.77-3.43c0-.1,0-.2,0-.3a2.18,2.18,0,0,0,.53.52,2.35,2.35,0,0,0,1.28.45,30.24,30.24,0,0,1-1.52,7.48A11,11,0,0,1,114.37,81.24ZM115,45.91a2.45,2.45,0,0,1-1.37-.48,8.28,8.28,0,0,1-.61-3.41c.08-.87,0-1.28-.23-1.53s-.46-.39-.72-.23a7.73,7.73,0,0,0-1-3.65l-.92-1c.29-.31,3,3.07,3.34,3.45,1.24,1.26,4,2.94,5.84,2.95a1.45,1.45,0,0,1-.81.37c-.41,0-.73.41-1.66,2.56l-.15.14A3.1,3.1,0,0,1,115,45.91ZM108.66,35s.19,0,.2,0C109.33,35,108.74,35.23,108.66,35ZM71.34,48.74c1.23,1,1.71,2,3.32,3a8.5,8.5,0,0,0,6.68.85c.37-.11.37.45.15.56a8.87,8.87,0,0,1-3.35.37,10.08,10.08,0,0,1-7.68-5h0c-.12-.2-.23-.4-.34-.61L70,47.7c-.45-.9-.49-1.05-.44-1.53a4.15,4.15,0,0,0-.14-1.29c-.18-.64-.18-.79,0-.88s.42.16.53.89c0,.25.07.51.11.78a.51.51,0,0,1,0,.13l.06.33,0,.17c0,.11,0,.21.07.32a1,1,0,0,0,0,.17,3,3,0,0,0,.08.32.75.75,0,0,1,0,.16l.12.31.06.13.15.31.07.1a3,3,0,0,0,.2.29A2.06,2.06,0,0,0,71.34,48.74Zm50,36.17a7,7,0,0,1-1-.48c-.23-.1-.14-.08.08-.4a9.89,9.89,0,0,0,.94-2.53Zm0-15.86v8.21c0,.22-.09.43-.13.63s-.08.38-.11.55a31.32,31.32,0,0,1-1.39,5.15c-.25.67-.17.55-1.28.36-.79-.14-1.08-.13-1.1-.22h0v0a8.15,8.15,0,0,0,.5-.88v0c.15-.36.28-.74.41-1.14s.2-.66.29-1h0c.09-.34.17-.69.25-1l0-.07c.08-.34.16-.7.23-1.06v0c.16-.78.31-1.58.46-2.35l.15-.81c0-.08,0-.17,0-.25.06-.31.12-.61.19-.91l0-.15c.07-.32.14-.63.21-.92,0-.1,0-.2.07-.29.31-1.27.65-2.52,1-3.77Zm22.09-5.63a.18.18,0,0,0,.06-.1c0-.11.16-.2.36-.2s.34.2.2,1.42-.24,1.44-.74,1.93c0-.82.08-1.66.14-2.53A3,3,0,0,0,143.39,63.42Zm7-20.2-.76-2.85c-.41-1.56-.82-3.4-.9-4.09-.18-1.46-.43-2.05-.9-2.05-.18,0-.33-.1-.33-.23s-.27-.34-.61-.47c-1-.38-1.17,0-1.44,3.6a22.24,22.24,0,0,1-.53,3.92c-.29.68-.3.65-1.05-1.81a8.49,8.49,0,0,1-.62-3.51c.11-.76.06-1.11-.21-1.37-.48-.48-.59-.45-1.3.28a2,2,0,0,0-.61,1.59,1.91,1.91,0,0,1-.46,1.43c-.32.3-.91,2-1.74,4.94-1.95,6.88-2.06,7.24-2.2,6.87a13.14,13.14,0,0,1-.54-2.15,1.15,1.15,0,0,0,.91-1.29,26.23,26.23,0,0,0-1.89-6.24,5.21,5.21,0,0,1-.59-3.33,11.11,11.11,0,0,1,.23-2.18.31.31,0,0,0-.12-.41c-.16-.1-.53.13-.92.55a1.9,1.9,0,0,1-1.18.72c-.47,0-.67.29-1.46,2.1-.5,1.16-1.09,2.62-1.31,3.25-.41,1.15-.79,1.78-.79,1.32s-.77-.53-1.4.08a1.81,1.81,0,0,0-.65,1.6,1.84,1.84,0,0,1-.47,1.45,13.85,13.85,0,0,0-1.42,3.91A18.43,18.43,0,0,1,124,52.36c-.57.18-1.22-.69-1.7-2.26a24.85,24.85,0,0,0-1.15-3,5.21,5.21,0,0,1-.58-3.33c0-.78.09-1.5.15-1.9a8.11,8.11,0,0,0,2.87-1.51c.61-.52-.23-.8-.56-.58a3.52,3.52,0,0,1-3.23.42c-2.49-1.13-4.71-4.58-6.81-6.5-.4-.36-.32-.17.23-.71,1.87-1.93,1.32-4.12-.21-6.07a8.55,8.55,0,0,0-2.82-2.22c1.7-.71,4.19-.83,5.64.5,2.5,2.31,2.82,8.16,7.28,10a7.06,7.06,0,0,0,2.73.49c3.34,0,5.56-3,6.66-5.84A2.88,2.88,0,0,0,132.7,28a6.29,6.29,0,0,0,.53.68c.84.95,1.8,1.4,1.8.83a7.73,7.73,0,0,0-2.07-2.3c-.5-.35-.62-.43-.65-.24-.27-.55-.68-1.2-1-1a16.36,16.36,0,0,0,.28,1.8,4,4,0,0,1-.39,2.08,8.43,8.43,0,0,1-4,2.73c-4.11.68-5.74-3-7.38-6s-2.77-4.78-6.51-5.53a7.72,7.72,0,0,0-3.21,0c-.19,0,.05-.48.1-.69a14.54,14.54,0,0,0,.32-1.77,53.63,53.63,0,0,1,8.64-3.67c3.52-1.18,4.09-1.31,4.61-1.07a.88.88,0,0,1,.6,1c0,1.63,1.69,3.6,4.25,5,1.43.76,2.66,1.94,5.61,5.37a19,19,0,0,0,9.94,6.48c2.62.81,3.94,1.4,4.71,2.1a7.64,7.64,0,0,1,1.42,3.33,17.5,17.5,0,0,0,.57,2.39l.57,2ZM115.55,23c2.66,1.55,3.38,5,5.2,7.55,1.24,1.71,2.13,2.68,4.23,3.22a6,6,0,0,0,3.5-.13c1-.25-1.1.75-1.24.8-2.67.89-5.26-.53-6.71-2.75-1.65-2.6-2.81-7-5.49-8.44-2.07-1.13-4.4-.48-6.49.19C110.78,22.1,113.19,21.62,115.55,23ZM55.22,87.46c0-.35,0-.67,0-1a12.07,12.07,0,0,0,2.13-.15c.64-.14.6-.17-.72-.57a13.35,13.35,0,0,0-1.42-.34c0-.38,0-.72,0-1s0-.56,0-.82l.13.13c.23.21,1,1,1.72,1.69s1.14,1.12,1.6,1.5l-.06.09a3.74,3.74,0,0,1-.28.33A2.79,2.79,0,0,0,56.51,90v.76a2.83,2.83,0,0,0,.7,1.85,9.34,9.34,0,0,0-1.82-.5,2.66,2.66,0,0,0,0-.63C55.31,90.08,55.25,88.74,55.22,87.46Zm3.42,4.16a1.15,1.15,0,0,1-.45-.9V90A1.13,1.13,0,0,1,59,88.89,2.21,2.21,0,0,0,60,88l0-.08h0c.08-.12.18-.28.29-.48l0,0,.11-.2v0c.12-.23.25-.51.39-.85v0c.09-.23.19-.46.29-.74h0c.08-.21.16-.43.24-.67.21-.61.43-1.2.64-1.81h0l.09-.26q1.29-3.67,2.62-7.29h0c.11-.29.21-.59.32-.88h0l.33-.89h0L66,72.09h0L66,72c.94-2.49,1.88-5,2.87-7.47a1,1,0,0,1,.42-.52h0a1.11,1.11,0,0,1,.29-.14,1,1,0,0,1,.33-.05.68.68,0,0,1,.2,0q.77.13,1.68.21l.74.06.94,0a1.12,1.12,0,0,1,1,.72c1.64,4.35,3.35,8.74,5.17,13.27h0l.15.36h0c.09.22.18.44.26.66.51,1.23,1,2.48,1.53,3.74h0c.19.46.38.93.58,1.39l.48,1.18a3,3,0,0,0,.7,1.09,1.11,1.11,0,0,0,.31.2,1.16,1.16,0,0,1,.41.09h0a1.07,1.07,0,0,1,.25.16l0,0a1.3,1.3,0,0,1,.19.22h0a1.23,1.23,0,0,1,.12.26.14.14,0,0,1,0,.07.93.93,0,0,1,0,.29v.64a1.36,1.36,0,0,1,0,.2.31.31,0,0,0,0,.08.3.3,0,0,1,0,.1s0,.07,0,.11l0,0a.75.75,0,0,1-.07.12h0a1.16,1.16,0,0,1-.92.46c-.8,0-1.73,0-2.76.08s-2.21.12-3.3.2-2.21.16-3.22.26-1.76.18-2.36.28h-.18a1.12,1.12,0,0,1-.73-.26,1.14,1.14,0,0,1-.39-.86v-.68a1.79,1.79,0,0,1,0-.24v0a1.43,1.43,0,0,1,.08-.22h0a1.11,1.11,0,0,1,.87-.63,4.52,4.52,0,0,0,1.38-.33,3.92,3.92,0,0,0-.32-1.14v0c-.59-1.58-1.17-3.18-1.74-4.74l-5.23.13-.33.92c-.1.28-.18.54-.26.79a1.72,1.72,0,0,0-.07.21c-.06.18-.11.35-.16.51l-.06.19c0,.2-.11.39-.15.57a1.16,1.16,0,0,0,0,.18c0,.11-.06.22-.08.33s0,.15-.05.22,0,.14,0,.21a6.62,6.62,0,0,0-.12,1.07h0s0,.09,0,.12c0,.63.14,1,.27,1a1.42,1.42,0,0,0,.33.13h0l.4.08h0a3.33,3.33,0,0,0,.46,0h.44a1.13,1.13,0,0,1,1.13,1.12v.71A1.12,1.12,0,0,1,66.4,91l-1.1.07-1.1.08-2.15.24-1.34.18c-.43.07-.8.14-1.1.22a1,1,0,0,1-.3,0A1.08,1.08,0,0,1,58.64,91.62Zm11.17-4.89a4,4,0,0,1-.21-.58h0A3.12,3.12,0,0,1,69.48,85h0a2.2,2.2,0,0,1,0-.36v0a2.14,2.14,0,0,1,.09-.34v0c0-.1.08-.21.13-.31l0,0a2.09,2.09,0,0,1,.16-.29l0-.07,0,0L70.93,86A2.75,2.75,0,0,0,69.81,86.73Zm-1.93-.11a21.76,21.76,0,0,1-1.18-2.71q.12-.37.27-.81h.24c.09.28.19.56.28.82v0c0,.16.11.32.16.47l0,.09c.06.15.11.31.17.46h0q.12.34.24.66c.08.21.15.4.23.59l.06.17.08.18q.07.2.15.36a6.2,6.2,0,0,0,.52,1,2.22,2.22,0,0,0-.1.5,2.9,2.9,0,0,0-.76-1.25c-.06-.06-.13-.1-.19-.15S67.94,86.75,67.88,86.62ZM68,83.07l1.13,0a8.2,8.2,0,0,0-.52,1c-.21.51-.18.25-.43-.48Zm4.29,9.05.53-.08A14.05,14.05,0,0,0,76,94.22c.82.37-1.34-1.38-1.36-1.4-.23-.2-.59-.53-1-.88l.88-.09c1-.09,2.06-.18,3.19-.26s2.2-.14,3.26-.2,1.91-.07,2.71-.07h0a2.83,2.83,0,0,0,1.53-.46c.11.23.22.46.35.69s.4.71.63,1.08l.44.66,0,0,.44.63.07.09c.14.19.29.39.45.58a.64.64,0,0,0,.1.13c.18.24.38.48.58.72,1.56,1.87,3.14,3.71,4.78,5.51a16.57,16.57,0,0,1-8.58-1.53,39.91,39.91,0,0,1-12.36-7.32Zm17,2.37a22.65,22.65,0,0,1-2.81-4.25.2.2,0,0,1,0-.08l-.15-.37-.06-.13,0,0a2.76,2.76,0,0,0,.19-.68c.14.25.29.52.45.78l.22.36.37.56c.1.16.21.31.32.47l.32.44.38.52c.27.35.54.7.82,1,.55.67,1.12,1.32,1.69,1.92l0,0c.28.29.55.58.83.84s.57.55.85.8c2,1.81,5.29,4.16,7.9,4.89,1.5.42-1.25-1.26-1.42-1.37-3-2-5.54-3.41-7.91-6.21-.76-.89.17-.62.81-.44a30.05,30.05,0,0,1,3.54,2.21c2.81,1.76,8.87,4.91,12.18,4.75.72,0-.53-.42-.74-.51-.73-.29-7.75-2.67-7.34-3.33.29-.47,1.69,0,2.13.09,3.55.74,6.72,1.71,10.18,2.71s.32-.65-.73-1.08a53.18,53.18,0,0,0-7.57-2.15c-.45-.11.67-.16.8-.18,3.42-.5,4.51-1.13,7.72.55a31.29,31.29,0,0,0,6.82,2.5l1.21.22c.79.13.63.06-.16.34-3.49,1.24-5.12.79-8.7,3-3.27,2-5.24,3.33-9.27,2.81C96.24,104.62,92.63,98.94,89.33,94.49ZM119,94a8,8,0,0,0,3-2.37l1,0h0c-.09.19-.18.4-.28.6-1.12,2.08-3.58,2.32-5.66,2.79C111.52,96.35,117.51,94.73,119,94Zm5.66-2.23-.25.15c-.39.25-.37.14-.26-.18Zm1.38.12.05,0,3.08.26a20.27,20.27,0,0,1-4.91,1.54C122.48,94,125.72,92.08,126,91.93Zm9.74-22.74a2.8,2.8,0,0,0-1.95,1v-2H134a2.19,2.19,0,0,1,.94.21A2.11,2.11,0,0,1,135.73,69.19Zm8.15,17.4c0-.94,0-1.69,0-2.23q0-1.89.09-3.12a21.23,21.23,0,0,1,4.54,1.57c0,1.29,0,2.42,0,3.39v0A19,19,0,0,0,143.88,86.59Zm11-5.4.48.46a21.23,21.23,0,0,1,3.12,3.61,6.36,6.36,0,0,1,.91,3.55,2.49,2.49,0,0,1-.21,1.24.41.41,0,0,1-.16,0,3.08,3.08,0,0,1-.38,0A2.47,2.47,0,0,1,157,88.92a10.17,10.17,0,0,1-1.49-3.57c-.15-.67-.28-1.35-.39-2,1.17-.25,1.12-.62-.1-.78C155,82.09,155,81.64,154.92,81.19ZM41.19,19.74c2-1.3,4-2.53,6.19-3.7a68.67,68.67,0,0,0-8,6.4c-1.84,1.67-4.34,3.79-5.54,4.71S30,29.89,27.72,31.44A64.62,64.62,0,0,1,41.19,19.74ZM24.49,35.62l2-1.31c7.05-4.57,9-6,13.81-10.37a68,68,0,0,1,9.65-7.47c7.21-4.79,8.81-5.56,11.61-5.53,3.22,0,5.43,1.69,7.8,5.87a34.68,34.68,0,0,0,3.09,4.43,25.78,25.78,0,0,1,2.61,3.39A67.59,67.59,0,0,0,68.24,30l-2.37,2.24a20.6,20.6,0,0,0-3.19,3.69,6.44,6.44,0,0,1-.63.92,6.59,6.59,0,0,1-.9.34l-2.59.89c-1.45.52-2.73,1-4,1.5v-.16a11.23,11.23,0,0,1,.23-2.18.29.29,0,0,0-.12-.4c-.16-.1-.53.13-.91.55a2,2,0,0,1-1.18.72c-.46,0-.67.27-1.29,1.65-.18.41-.44,1-.73,1.76l-.53.29c-.5.3-1.69.94-2.75,1.57a5.47,5.47,0,0,1-.23-2.14c.09-.79,0-1.17-.22-1.42-.46-.46-.53-.45-1.27.27a1.79,1.79,0,0,0-.64,1.57,2.06,2.06,0,0,1-.51,1.53,8,8,0,0,0-1.08,2.74A5.2,5.2,0,0,1,42.56,48a3.76,3.76,0,0,1-.35-1.7c-.12-1.71-.36-2.2-1.06-2.06-.31.06-.44.32-.49,1s-.95,2.41-.95,1.73a8.78,8.78,0,0,0-.68-1.7,5.26,5.26,0,0,1-.6-3.36,11.5,11.5,0,0,1,.23-2.19.3.3,0,0,0-.12-.4c-.16-.1-.53.13-.91.55a2,2,0,0,1-1.19.72c-.48,0-.67.29-1.46,2.1-.5,1.16-1,2.5-1.21,3-.28.81-.31.83-.49.34a20,20,0,0,1-.53-2.11c-.18-.88-.64-2.62-1-3.87a8,8,0,0,1-.58-3.35c.1-.79,0-1.16-.22-1.42-.47-.47-.59-.44-1.29.29A2,2,0,0,0,29,37.14a1.91,1.91,0,0,1-.47,1.43c-.31.3-.9,2-1.74,4.94-1.94,6.88-2.06,7.24-2.19,6.87a14.63,14.63,0,0,1-.55-2.15A1.15,1.15,0,0,0,25,46.94a27.19,27.19,0,0,0-1.9-6.26,5.67,5.67,0,0,1-.63-1.83C23.09,37.76,23.76,36.68,24.49,35.62ZM24,98.47l-.77.19a1.24,1.24,0,0,1-.27,0,1.12,1.12,0,0,1-1.12-1.06c0-.46-.06-.85-.09-1.16q-1,1.36-2.1,2.58a8.49,8.49,0,0,1-4.08,2.49,10.43,10.43,0,0,1-2.88.43A7.59,7.59,0,0,1,8,100.37C5.89,98.76,4.32,96,3.2,92.06A54.22,54.22,0,0,1,1.59,77.68,54.72,54.72,0,0,1,3.25,63.22c1.14-4.1,2.71-7,4.79-8.77a7.43,7.43,0,0,1,5-1.9c.3,0,.6,0,.91.06h0c.26,0,.53.07.79.12h.09c.27.06.55.12.83.2s.43.13.64.21l.08,0c.18.07.37.14.54.22l0,0a7.51,7.51,0,0,1,1.12.6l.11.07.45.31.15.12.39.32a.86.86,0,0,1,.14.13c.17.15.33.31.49.48a23.9,23.9,0,0,1,2,2.5c0-.31.05-.67.08-1.11a1.13,1.13,0,0,1,.45-.84,1.17,1.17,0,0,1,.67-.22.84.84,0,0,1,.27,0L24,56a1.12,1.12,0,0,1,.85,1.12c-.05,1.49-.08,3.34-.1,5.51s0,5.11,0,8.67a1.1,1.1,0,0,1-.35.82,1.14,1.14,0,0,1-.77.3h-.08l-.46,0h0l-.31,0a1.13,1.13,0,0,1-1-1.06c0-.49-.05-1-.08-1.44h0c0-.34,0-.66-.08-1h0c0-.15,0-.29,0-.43h0c0-.17,0-.34-.05-.51s0-.36-.05-.53h0c0-.34-.08-.67-.12-1a21.17,21.17,0,0,0-.86-3.81,11.28,11.28,0,0,0-1.59-3.08,8.32,8.32,0,0,0-1.31-1.47,3.75,3.75,0,0,0-.33-.26h0a3.07,3.07,0,0,0-.38-.22l-.08,0a2,2,0,0,0-.38-.14,2.36,2.36,0,0,0-.56-.08,1.63,1.63,0,0,0-1.39.85,6.19,6.19,0,0,0-.39.63l0,.09a14.53,14.53,0,0,0-1.3,3.81,51.62,51.62,0,0,0-.93,7c-.17,2.59-.26,5.16-.26,7.64s.09,5,.26,7.64a51.62,51.62,0,0,0,.93,7,12.27,12.27,0,0,0,1.74,4.52,1.62,1.62,0,0,0,1.39.85,2.36,2.36,0,0,0,.56-.08,2.92,2.92,0,0,0,1.15-.68,10.91,10.91,0,0,0,1.35-1.49,11.52,11.52,0,0,0,2.05-4.87,58.35,58.35,0,0,0,.8-7.69l0-.2a1,1,0,0,1,.13-.3s0,0,0,0a1.16,1.16,0,0,1,.2-.24l0,0a1.4,1.4,0,0,1,.26-.16l.05,0a1.14,1.14,0,0,1,.32-.07l.77,0h.07a1.11,1.11,0,0,1,1.12,1.12c0,.38,0,.75,0,1.12v1c0,2.74,0,5,0,6.84,0,2.34,0,4.22.1,5.74A1.13,1.13,0,0,1,24,98.47Zm-4-27.08a2.47,2.47,0,0,0,.23,1,37.68,37.68,0,0,1-1.94-5.68l0,0a5.68,5.68,0,0,0,1.34,1l.05,0C19.9,68.87,20,70.08,20.06,71.39Zm-5.95-7.16a43.46,43.46,0,0,0,6.61,16.61,2.82,2.82,0,0,0-.66,1.67A56.45,56.45,0,0,1,19.28,90a9.77,9.77,0,0,1-1.75,4.17,8.66,8.66,0,0,1-1.13,1.25,1.1,1.1,0,0,1-.45.3l0,0a1,1,0,0,1-.1-.14,10.36,10.36,0,0,1-1.46-3.89,48.13,48.13,0,0,1-.9-6.78c-.17-2.55-.26-5.08-.26-7.53s.09-5,.26-7.53A54,54,0,0,1,14.11,64.23Zm3.39-3.69a7.61,7.61,0,0,1,.67,1.07,2.6,2.6,0,0,1-.55,1.53c-.14-1-.24-1.9-.31-2.86A2.48,2.48,0,0,1,17.5,60.54Zm8.92,22a2.8,2.8,0,0,0-.88-2,2.72,2.72,0,0,0-1-.6,44.27,44.27,0,0,1-4.2-7.55,2.8,2.8,0,0,0,2.35,1.65l.77,0h.2a2.77,2.77,0,0,0,1.24-.3c.17.25.37.45.43.45s2-.45,4.37-1c1-.23,2-.46,3.05-.66V87.23l-2,.08A55.48,55.48,0,0,1,26.42,82.55Zm5.23,5.72h1.06v1C32.35,88.92,32,88.6,31.65,88.27Zm1.76,8a1.35,1.35,0,0,1-.29,0,1.14,1.14,0,0,1-.68-.23,1.12,1.12,0,0,1-.44-.89v-1a1.07,1.07,0,0,1,.18-.58.83.83,0,0,1,.11-.15l.16-.16.08,0a1.13,1.13,0,0,1,.27-.13A3.72,3.72,0,0,0,34,92.62s.17-.17.26-.64a3.53,3.53,0,0,0,0-.38.88.88,0,0,0,0-.17c0-.07,0-.14,0-.22s0-.33,0-.51h0c0-.37,0-.76,0-1.21V65a14.55,14.55,0,0,0-.15-2.52,1.18,1.18,0,0,0-.3-.66,2.89,2.89,0,0,0-1.09-.46A1.11,1.11,0,0,1,32,60.27v-1a1.11,1.11,0,0,1,.44-.89,1.14,1.14,0,0,1,.68-.23.92.92,0,0,1,.29,0c.71.19,1.59.41,2.54.63s2.18.49,3.37.72,2.19.4,3.26.57,1.87.28,2.64.38a1.11,1.11,0,0,1,1,1.11v.88a1.14,1.14,0,0,1-.38.85,1.11,1.11,0,0,1-.74.27h-.14a5.48,5.48,0,0,0-.75-.06,2.65,2.65,0,0,0-.47,0,.5.5,0,0,0-.08.2,8.83,8.83,0,0,0-.17,2.16V89.46a7.94,7.94,0,0,0,.1,1.52l.32,0L45,90.76c.28-.05.89-.31,1.88-1.52a17.82,17.82,0,0,0,2.34-3.92,17.35,17.35,0,0,0,1.4-4.78,1.11,1.11,0,0,1,1.06-1h.2l.57,0h.05a1.12,1.12,0,0,1,1.12,1.12v.13c0,.18,0,.38,0,.58s0,.24,0,.36h0c0,.77-.05,1.66-.05,2.69,0,.29,0,.64,0,1h0c0,.24,0,.5,0,.77h0c0,.38,0,.78,0,1.23,0,1.32.09,2.69.2,4.08a1,1,0,0,1-.1.55h0a1.14,1.14,0,0,1-.35.44h0l-.2.11H53a1.19,1.19,0,0,1-.27.07l-.57.06h0c-1,.11-2.1.26-3.25.43-1.37.21-2.65.42-3.82.63l-3.24.58-1.81.34h0l-2.48.51-1.28.28h-.07C35.23,95.85,34.29,96.08,33.41,96.31Zm8.36-.1.39-.08,3.23-.58c1.15-.2,2.42-.41,3.78-.62s2.61-.36,3.75-.48a2.78,2.78,0,0,0,2-1.23,4.3,4.3,0,0,1,1.72.46c1.56.66,2.13.72,2.72.29.26-.19.38-.28.1-.46a3,3,0,0,0,.59-.09,8,8,0,0,1,.89-.18c.46-.07.89-.13,1.29-.17l1.32-.15a2.2,2.2,0,0,0,.25.17,4.29,4.29,0,0,0,3-.13l0,0c1.33.9,2.67,1.78,4,2.62a45.43,45.43,0,0,0,16,6.72c2,.47,5.16,1.07,7.1.7.43-.08.89.58,1.21.88a12.06,12.06,0,0,0,8.6,3.68c4.62,0,8.8-4.24,13.32-5.53,1.6-.46,4.93-1.47,6.06-2.75.94-1.07-2.29-1.32-2.64-1.38a23,23,0,0,1-4.08-1c.35-.29,5.54-1,6.69-1.34a61.22,61.22,0,0,0,8.5-3.09l1.65.17c1.19.12,2.47.27,3.8.44s2.63.37,3.75.56a2.72,2.72,0,0,0,.49,0,2.79,2.79,0,0,0,1.89-.74,2.83,2.83,0,0,0,.9-2.31c-.06-.72-.11-1.42-.14-2.11a29.25,29.25,0,0,1,4.51-.51c0,.77,0,1.46,0,2,0,.23,0,.46,0,.67a9.5,9.5,0,0,0-1.34.16l-.56.22.56.14a13.11,13.11,0,0,0,1.32.17c0,.38,0,.74-.05,1.06a2.79,2.79,0,0,0,2.33,2.93l.77.13a2.56,2.56,0,0,0,.47,0,2.84,2.84,0,0,0,1.66-.54l1.14.69a13.17,13.17,0,0,0,2.72,1.12c-14.91,9.38-35.11,15.13-57.39,15.13C77.33,111.91,56.76,105.92,41.77,96.21ZM171.68,84.93a16.53,16.53,0,0,0-.86-4.71,15.8,15.8,0,0,0-2.4-4.4c-.16-.21-.34-.42-.51-.63a1.44,1.44,0,0,0,.66-.45c.1-.16-.46-.22-1.23-.22a3.47,3.47,0,0,0-.25-.29l.71,0a2.81,2.81,0,0,0,2.61-2.8c0-2.56,0-4.62,0-6.2,0-.88,0-1.67,0-2.36a4.33,4.33,0,0,1,1.76.2c1.28.45,1.6.41,2.05-.27.28-.43.45-.52.64-.34.42.42,1,.28,2-.5l.41-.3c0,.24,0,.5,0,.79V77.22A48.75,48.75,0,0,1,171.68,84.93Zm26.08,19.28a1.16,1.16,0,0,1-.65.2,1,1,0,0,1-.42-.08c-1.09-.44-2.36-.89-3.75-1.33s-2.6-.81-3.77-1.15l-3.21-.91c-1.34-.37-2.77-.74-4.25-1.11s-2.84-.67-4.15-.92a1.13,1.13,0,0,1-.91-1.1V96.64a1.12,1.12,0,0,1,1.12-1.12h.14a3.81,3.81,0,0,0,.54,0l.31,0a2,2,0,0,0,.12-.46,21.6,21.6,0,0,0,.15-3V62.4c0-.46,0-.87,0-1.25h0c0-.58-.05-1.06-.09-1.43v0h0a2.79,2.79,0,0,0,0-.32,1.81,1.81,0,0,0-.13-.46l-.23,0a4.13,4.13,0,0,0-.55,0,.65.65,0,0,1-.2,0,1.09,1.09,0,0,1-.71-.26,1.11,1.11,0,0,1-.41-.86V56.67a1.11,1.11,0,0,1,.88-1.09c1.4-.31,2.81-.64,4.19-1l2.52-.63.28-.07,1.44-.39.33-.09h0l2.88-.82c1.1-.31,2.26-.67,3.45-1s2.41-.81,3.4-1.21a1.07,1.07,0,0,1,.43-.09,1.15,1.15,0,0,1,.64.2,1.11,1.11,0,0,1,.47,1c-.08,2.45-.14,4.82-.18,7.07s0,4,0,5.2c0,1,0,2,0,2.88s0,1.68.06,2.31a1.12,1.12,0,0,1-1,1.15l-.76.08h-.11a1.15,1.15,0,0,1-.73-.27,1.13,1.13,0,0,1-.39-.78,44.65,44.65,0,0,0-1.29-8.9c-.69-2.33-1.37-3.26-1.82-3.63a1.81,1.81,0,0,0-1.16-.47,1.74,1.74,0,0,0-.45.06l-.44.12a2,2,0,0,0-.83.38,1.32,1.32,0,0,0-.24.66,16.54,16.54,0,0,0-.14,2.52V75a2.78,2.78,0,0,0,.48-.58,11.85,11.85,0,0,0,1.4-3.25,24.1,24.1,0,0,0,.76-4,1.12,1.12,0,0,1,1-1l.76-.09h.14a1.11,1.11,0,0,1,1.12,1.16c-.09,2.63-.13,4.65-.12,6s0,2.68,0,3.84,0,2.42,0,3.81.08,3.36.17,6a1.11,1.11,0,0,1-1.12,1.16h-.13l-.77-.09a1.11,1.11,0,0,1-1-1,21.62,21.62,0,0,0-.78-4.45,8.34,8.34,0,0,0-1.38-2.9,2.28,2.28,0,0,0-.58-.53V94.66a16.74,16.74,0,0,0,.14,2.49,1.38,1.38,0,0,0,.24.69,2,2,0,0,0,.83.38l1.11.3.17,0a1.79,1.79,0,0,0,1.07-.6c.46-.45,1.18-1.53,1.95-4.16A51.38,51.38,0,0,0,195.1,84a1.13,1.13,0,0,1,1.11-1h.1l.76.06a1.12,1.12,0,0,1,1,1.16c-.07,1.73-.1,4-.1,6.7,0,1.21,0,3,0,5.24s.09,4.65.2,7.11A1.12,1.12,0,0,1,197.76,104.21Zm-5.48-39.79-.81.1a2.81,2.81,0,0,0-1.73.9v-5.6a17.77,17.77,0,0,1,.08-2l.31-.09.13.1s.59.5,1.27,2.79A27.46,27.46,0,0,1,192.28,64.42Zm.44,25.38a29.19,29.19,0,0,1-.76,3.5c-.77,2.63-1.39,3.32-1.51,3.43l0,0-.58-.15a18.81,18.81,0,0,1-.08-2v-6a2.81,2.81,0,0,0,1.84,1l.77.09a1.83,1.83,0,0,0,.33,0Z" transform="translate(0.09 -0.02)"/><path class="cls-4" d="M139,101.77a35.17,35.17,0,0,1-4.11-.79c-2.3-.6-2.4-.6-3.87-.26l-2.25.5c-.41.08-.74.23-.74.33,0,.35.89.41,2.58.17s1.83-.21,4.17.46c1.35.39,2.72.76,3,.82a8.89,8.89,0,0,0,3.44-.25C141.61,102.34,140.72,102,139,101.77Z" transform="translate(0.09 -0.02)"/><path class="cls-4" d="M90.24,25.71c.54-.72,1-1.49,1.55-2.33s4.77-7,4.82-7.2c.08-.5-1.58,1.48-1.62,1.53-1.76,2.33-3.15,4.68-4.74,7.1a4.62,4.62,0,0,1-.27.4l-.06.09-.25.34,0,0-.23.31,0,.06-.65.81a1.65,1.65,0,0,0-.28.5l-.07.3A10.34,10.34,0,0,0,90.24,25.71Z" transform="translate(0.09 -0.02)"/><path class="cls-4" d="M87.36,103.84c-2.83-.32-3.51-.3-3.67.11s0,.65,2.27.93c2.44.32,4.48.15,4.48-.36C90.44,104.27,89.76,104.11,87.36,103.84Z" transform="translate(0.09 -0.02)"/><path class="cls-4" d="M92.89,35.18a23,23,0,0,0,2.17-1l.18-.09.23-.11.21-.11.26-.14.13-.07.32-.18.11-.06.31-.18.07,0,.3-.18h0l.25-.17,0,0,.18-.15,0,0a.35.35,0,0,0,.1-.12h0s0-.07,0-.09a.47.47,0,0,0-.1-.1l0,0a.32.32,0,0,0-.14,0h0l-.21,0h-.06l-.22.05H97l-.3.1-.07,0-.27.11-.07,0-.34.16-.07,0-.29.15-.09,0-.35.18,0,0-.3.17-.09,0-.3.18h0c-.58.35-1,.66-1.19.75C92.79,34.65,92.62,35.17,92.89,35.18Z" transform="translate(0.09 -0.02)"/><path class="cls-4" d="M74.81,49.35a9.13,9.13,0,0,0,2.86,1.21h0l.19,0a6.36,6.36,0,0,0,2.62.1c.84-.19.8-.65-.26-.67h-.3c-.59,0-1.14-.07-1.65-.13h0a7,7,0,0,1-4.32-2C72.27,46.22,73.32,48.32,74.81,49.35Z" transform="translate(0.09 -0.02)"/><path class="cls-4" d="M70.54,56.57a7.16,7.16,0,0,1-1.83-1.71c-.38-.42-.88-.31-.4.43s2.06,2.5,3.19,2.31C72.18,57.49,70.59,56.6,70.54,56.57Z" transform="translate(0.09 -0.02)"/><path class="cls-4" d="M127.3,22.4c-.77,0-.52.38.53.78a7.3,7.3,0,0,1,1.88,1.16c1.28,1.12,1.61,1.06.75-.14A6.06,6.06,0,0,0,127.3,22.4Z" transform="translate(0.09 -0.02)"/><path class="cls-4" d="M82.81,27.78a.78.78,0,0,0,.16-1.1.84.84,0,0,0-.31-.25.44.44,0,0,1-.15.49.42.42,0,0,1-.61-.09.43.43,0,0,1-.09-.26.77.77,0,0,0-.1,1.05A.78.78,0,0,0,82.81,27.78Z" transform="translate(0.09 -0.02)"/><path class="cls-4" d="M74.69,104.39c-.69-.41-1.18-.45-6.6-.45s-5.82,0-5.36.37c.67.52,2,.66,4.65.53a31.81,31.81,0,0,1,4.18.08c2.59.28,3.87.31,3.87.09S75.09,104.64,74.69,104.39Z" transform="translate(0.09 -0.02)"/><path class="cls-4" d="M31.72,78.66c-.17-.2-.81-.3-1.94-.3a8.09,8.09,0,0,1-2.5-.34c-1-.4-3.62-.47-3.85-.09s.42.65,1.55.51a2,2,0,0,1,1.4.13,3.37,3.37,0,0,0,1,.46,15.48,15.48,0,0,0,4.47.09C31.9,79,31.86,78.83,31.72,78.66Z" transform="translate(0.09 -0.02)"/><path class="cls-5" d="M133.78,84.79l.59-.17a3,3,0,0,1-.59-.58ZM132.1,67.85v-.2h0Zm1.68,18.44.67.06a1.63,1.63,0,0,0,.73-.22,2.85,2.85,0,0,0,.89-1h-.18a1.36,1.36,0,0,1-.29,0l-1.36.42-.46.14Zm-6.48,4h0l-1.43-.11Zm-15.76,4.41c-.47,0-1.73-.25-.64.15.44.16,1.39.67,1.81.49,1.91-.79,4.78-1.43,6.43-2.36A7.91,7.91,0,0,0,121,91.56a2.81,2.81,0,0,1-2.09-2.71V88.2a2.84,2.84,0,0,1,.82-2,3,3,0,0,1,.72-.51,9.43,9.43,0,0,0-1.33-.5,8.39,8.39,0,0,0-2.64-.32l.31.3a2.83,2.83,0,0,1,.85,2.07,2.8,2.8,0,0,1-.94,2,8.16,8.16,0,0,1-3.47,1.88,12.56,12.56,0,0,1-3,.35h-.53a10.65,10.65,0,0,1-4.83-1.17l0,0c-.37.08-.75.15-1.14.2a2.82,2.82,0,0,1-1.47.42H102c-.61,0-1.41-.07-2.36-.08H96.55l-3.38.07-.87,0a21.58,21.58,0,0,0,13.58,3.22,17.34,17.34,0,0,1,5-.28C113.45,94.13,116.3,95.08,111.54,94.73Zm28.28-19h-.12l-.32,0c0,.44,0,.85,0,1.24a7.26,7.26,0,0,1,4.69.55c.21.18.22.31,0,.55s-.52.3-1.82.23a2.83,2.83,0,0,1,1,.69,2.78,2.78,0,0,1,.59,1.06l2.33.62a13.72,13.72,0,0,1,2.32.9V80.26a2.81,2.81,0,0,1,.85-2,2.49,2.49,0,0,1,.57-.41,1.44,1.44,0,0,1-.76-.27c-.24-.29-.18-.38.33-.57a4.18,4.18,0,0,1,1.3-.22,12.45,12.45,0,0,1-1.14-1.92,11.86,11.86,0,0,1-1.12-5.22c-.22.09-.44,0-.91-.15a9.13,9.13,0,0,0-2.38-.33,3.52,3.52,0,0,1-2-.41c0,.57,0,1,0,1.41v.66c1.7,0,4.24.32,4.49.74.13.21-2.47.21-4.46,0,0,.45,0,.83.06,1.13a2.8,2.8,0,0,1-2.68,3ZM83,52c-.09.55-.15.54.16.34s.93-.63,1.4-.92A8,8,0,0,1,89.77,50c3.18.34,4.36,2,8,1.4.47-.08.94-.12.23-.38-.52-.2-1.51-.71-2-.53-1.78.6-4.45-1.62-7-1.54s-3.26,1.16-5.27,2.43C83.25,51.74,83.09,51.57,83,52Zm11.9-10.82c0,.07-.15.4-.26.73l-.07.17c-.88,2.29-4.94,3.32-7,4.26a7.88,7.88,0,0,0-3.94,3.72c-.11.23-.31.51-.06.29a8.27,8.27,0,0,1,4.34-2.22c3.35-.63,3.72.69,6.59,1.31.49.11,1,.36.73,0-1.43-2-1.17-3.59-.67-5.88C94.86,42.24,95.07,40.78,94.92,41.17Zm6.9,8.11c2.31-3.11,3.57-4.5,5.1-8.16a27.54,27.54,0,0,0,1.14-3.54c.23-.95-.13-.74-.25-.29a33.09,33.09,0,0,1-3.27,7l-.3.53a28.17,28.17,0,0,1-4,5.38C101.41,50.27,101.19,50.13,101.82,49.28ZM135,68.39a2.19,2.19,0,0,0-.94-.21h-.24v2a2.8,2.8,0,0,1,1.95-1A2.11,2.11,0,0,0,135,68.39Zm-31-6.12c-2.35-1.07-4.08-4.67-5.91-6.6a4.59,4.59,0,0,0,1,2.85,29,29,0,0,0,3.63,5.09,26.64,26.64,0,0,1,5.15.5c.45-1.37-.32-3.67.87-5.76.74-1.18,3.22-2.81,4.35-3.69s2.85-2.55,2-4.08c-.72-1.27-2-1-3.32-.82-1.47.24-3.32.4-4.71.78-.75.21-1.52.33-2.23.52-.39.11-1.57.89-1.09,1.15a13.59,13.59,0,0,0,4.13.67c.25,0,2.27,0,1.88.6-.71,1.05-5.16.11-6.19-.2-.41-.12-1.28-.56-1.62-.36s-.6.35-.5.72c.23.8,4.73,3,4.62,3.65s-3.12-1.17-3.43-1.36-1.55-1.23-1.73-1.17c-1,.27.67,3.17.92,3.87a7.46,7.46,0,0,0,1.64,2.31C103.49,61.08,105.16,62.82,104,62.27ZM90.09,78.82a10.88,10.88,0,0,0-2.7-.45c.9.44,1.92.65,2.7,1Zm0-1.56a7.49,7.49,0,0,1-2.73-.61c-.16-.1-.83-.63-.57-.33,1.27,1.43,1.74,1.17,3.3,1.75Zm0,3.17c-.87-.08-1.69-.18-1.87-.16.36.34,1.07.5.84.92a5.87,5.87,0,0,0,1,.26Zm0,1.72c-.74-.07-1.6-.27-1.82-.25,0,.06.77.58.86.65a4.69,4.69,0,0,0,1,.46Zm31.21-.65a9.89,9.89,0,0,1-.94,2.53c-.22.32-.31.3-.08.4a7,7,0,0,0,1,.48Zm.74-17h0l-.4,0ZM119.3,67.7a45.61,45.61,0,0,0-1.2,4.66c-.68,3.26-.89,6.72-2.37,9.7-.84,1.62-1.82,2.32.36,1.51,1-.39,1.48-2.95,1.69-3.85.32-1.44.72-2.85,1-4.29a63.16,63.16,0,0,1,1.67-6.66,2.7,2.7,0,0,1-.68-.48A2.63,2.63,0,0,1,119.3,67.7Zm-1.51,15.11c-.52,1.21-1,.86.6,1.14,1.11.19,1,.31,1.28-.36a31.32,31.32,0,0,0,1.39-5.15c.07-.34.15-.76.24-1.22V69.05l-.15,0c-.38,1.34-.73,2.7-1.06,4.06C119.37,76.05,118.89,80.12,117.79,82.81Zm3.95,4.27h0ZM92.86,89.22ZM77,40.82l.43-.47-.42.13c-.38.12-.5.21-1.08.84-.35.38-1,1.17-1.43,1.74l-1,1.31a4.87,4.87,0,0,0-.77,1.82c-.1.53-.34.82-.57.69a6.84,6.84,0,0,1-.81-1.6c0-.08,0,0,0,.25a6.74,6.74,0,0,1-.1.85c0,.24,0,.46,0,.49l.09.07c1.06,1.1,1.56,2.24,2.92,3.34a8.28,8.28,0,0,0,6.37,1.45c.65-.16.83-.14.89-.73.38-4.2,4.18-6.16,7.56-7.76,2.42-1.14,3.23-1.67,3.55-2.31a3,3,0,0,0,.23-1.68c-.06-.52,0-.7.24-.56a1.82,1.82,0,0,1,.4,1.51c-.12,1.51-.88,2.21-4,3.68-1,.49-2.14,1-3.11,1.6-2.36,1.45-3.8,2.93-4.13,5.78a9,9,0,0,1,3.53-4.92c2.18-1.56,6.7-2.23,8-4.33A2.63,2.63,0,0,0,94,39.42c-.2-.27-.14-.5.14-.52s.85.46,1.18.9c.61.81.63,1.67.09,3.9-.09.39-.18.77-.25,1.16A4.45,4.45,0,0,0,95.93,49c.38.42,2.94,1.93,1.79,1-2.73-2.2-2.62-4-1.53-7.13.66-1.83.81-2.64.63-3.45A2.88,2.88,0,0,0,96,38.06c-.49-.61-.64-.85-.58-.94s.81.28,1.34,1c1,1.25,1,2.33,0,5-.63,1.78-1.08,3.65.22,5.28.4.44,1.84,1.72,2.45,1.57.45-.1,1.92-2.13,2.27-2.6a45.91,45.91,0,0,0,5.46-10.18c.06-.21.16-.33,0-.31a7.43,7.43,0,0,0-1,.22c-.32.09-1.22.51-.84.06a2.69,2.69,0,0,1,3.62-.39c2.39,1.92,1.16,5.79,2.89,8.17.3.39.3.39,0-.45l-.08-.21c-.84-2.4-.37-5.63-1.78-7.4s-2.19-1.38-3.91-.85c.81-2.23,3.86-2.12,5.38-.71,2.22,2.07,4.1,5.26,7.28,5.9.09,0,1.25.1.83,0-3-.78-5.13-4.83-7.41-6.7-2-1.63-4.81-1.65-6.39.57a12.57,12.57,0,0,1-.66,1.17c-.68,0,.44-2.06.56-2.26.47-.83,1.09-1.15,1.37-1.6s-1.51-.79-1.74-.83c-2.65-.5-3.48.28-5.93.62-.1,0-.85.05-.51-.27.5-.47,4-1.25,4.82-1.31a8.08,8.08,0,0,1,3.94.83c.51.34.23-.06-.4-.36-4.94-2.32-9.25-.12-13.47,2.58A20.67,20.67,0,0,1,89.52,36l-.47.13.29-.31a27.94,27.94,0,0,1,4-2.86c4-2.54,7.37-4.5,12.17-3.27,0,0,5,1.68,3.85.87a13.23,13.23,0,0,0-6-1.82c-.21,0-2.46,0-2.5-.09-.19-.41,2.71-.41,2.87-.41a13,13,0,0,1,5.86,1.64,14.28,14.28,0,0,0,1.36.74l.64.3-.13-.33a4.5,4.5,0,0,0-2.15-1.73,13.67,13.67,0,0,0-6.26-1.48c-1.21,0-1.32,0-1.14-.23a1.22,1.22,0,0,1,.39-.15,12.16,12.16,0,0,1,7.47.89c.93.49,1.41.95,2.19,1.44s-1-2.39-1.8-2.82c-3.08-1.59-8.08-.88-11.24.14a36.09,36.09,0,0,0-5.29,2.34,16.56,16.56,0,0,0-3.84,2.33c-1.61,1.22-1.66,1.26-1.77,1.65a8.12,8.12,0,0,1-1.27,2.34c-1.06,1.35-3.28,2.75-6.24,4a6,6,0,0,0-3,1.9A30.82,30.82,0,0,0,74.74,45a7.05,7.05,0,0,1-.91,1.14l-.29.21.1-.46A21.65,21.65,0,0,1,77,40.82Zm16.19-6.44c.45-.31,4.26-2.76,4.66-2,.2.4-4.49,2.64-4.92,2.76C92.62,35.17,92.79,34.65,93.15,34.38ZM74,47.84c1.83,1.76,3.5,2.07,6,2.18h.3c1.06,0,1.1.48.26.67a8.55,8.55,0,0,1-5.67-1.35C73.32,48.32,72.27,46.22,74,47.84ZM54.15,53a9.92,9.92,0,0,0-.48,2.07c.14.56,1-2.25,1.06-2.27C55,52,54.29,52.67,54.15,53ZM67.6,55.26a7.82,7.82,0,0,0,4.05,3.33c.41.15.75.06.86.14a2.47,2.47,0,0,0,.89.39c1.22.34,1.3,1,.11.83l-.63-.07,0,.6c0,.86.07,1.46.11,2l.47,0a2.8,2.8,0,0,1,2.62,1.81c1.29,3.43,2.62,6.88,4,10.41a5.1,5.1,0,0,0,2.93,1.7c.2.06,1.28.28,1.13.64a1.36,1.36,0,0,0,0,.87,10,10,0,0,1-.71,5c.23.57.47,1.14.71,1.72a5.28,5.28,0,0,1,.28-1.2c.47-1.21,1.53.15,1.81.79A16.8,16.8,0,0,0,87.76,87a2.88,2.88,0,0,1,.51-1.09,15.59,15.59,0,0,1-3-7.26,21.15,21.15,0,0,1,2.37-12.33v-.09a2.8,2.8,0,0,1,.88-2,3,3,0,0,1,.55-.4,56.52,56.52,0,0,1,5.52-7.16c.8-.9,2.3-2.29,2.86-3.1-.38-.21-1.29.56-1.55.83-1.5,1.58-2.83,3.34-4.35,4.92-1.37,1.41-1.93,1.5-.46-.22,1.1-1.26,2.08-2.62,3.16-3.89.82-1,1.41-1.09.29-1.27-2.49-.38-2.61-.64-4.81-1.65a4.51,4.51,0,0,0-4.46.35c-.15.1-2.34,1.84-2.21,2.16s.26,1.08.16,1.09-.24-.15-.39-.35l-.27-.36-.57.28a4.68,4.68,0,0,1-1.47.42c-3.79.54-6-1.15-9.22-2.68-1.5-.72-1.18-.81-1.95.44s-1.14.48-.71-.32C68.94,52.81,67,54.21,67.6,55.26Zm1.11-.4a7.16,7.16,0,0,0,1.83,1.71s1.64.92,1,1c-1.13.19-2.63-1.46-3.19-2.31S68.33,54.44,68.71,54.86ZM55.78,50.05l.09-.3L55.7,50a7.21,7.21,0,0,0-.44.72c-.15.28-.22.47-.14.42A3.05,3.05,0,0,0,55.78,50.05Zm-1.25,9.89a46.36,46.36,0,0,1,1.26-5.3,45.12,45.12,0,0,1,2.63-6.36c.71-1.41.85-1.82.45-1.53h0l-.37.3a7.63,7.63,0,0,0-1.19,2.1,43.71,43.71,0,0,0-2.72,7.34c-.23.89-.72,2.28-.41,3.17C54.34,60.18,54.42,60.57,54.53,59.94Zm15,.34a1,1,0,0,0-.46.07c-.32.11-.43.24-1.11,1.26-2,3.1-5.34,6.49-5.93,6.11a.26.26,0,0,1-.13-.16A9.13,9.13,0,0,1,63.23,66c1.15-1.19,4.13-5.7,4.52-7.23.13-.51.18-.47-.12-.45-.9,0-2.1,1.3-2.74,1.86C63.09,61.79,59.64,64.56,59,65s-.94.4-.86.09A19.63,19.63,0,0,1,61,61.82c.73-.7,1.34-1.31,1.36-1.36s.77-.71,1.67-1.48c2.2-1.9,2.54-2.3-.6-.72a34.6,34.6,0,0,0-5.68,3.51l-1.86,1.38c2,3.37,3.89,6.39,3.27,10.42L59,74.65l.92.26a25.33,25.33,0,0,0,3,.68c.08-.21.15-.43.23-.64a.85.85,0,0,1-.61-.27c-.19-.26,0-.4.5-.35.1,0,.22,0,.34,0,1.28-3.47,2.59-6.92,4-10.41a2.8,2.8,0,0,1,2.34-1.75C69.8,61.07,69.77,60.35,69.57,60.28Zm33.22-38.86c.28-.05,1.06,0,.88-.22-.61-.58-3.79.68-4.45.92a18.8,18.8,0,0,0-5.68,3C96.24,23.94,100,21.94,102.79,21.42ZM54.51,73.56A20.38,20.38,0,0,0,55,76.29s.23-.14.35-.37C55.57,75.47,54.82,73.34,54.51,73.56Zm110.69,1.1h0c-.31-.33-.62-.65-.95-1C164.58,74,164.89,74.33,165.2,74.66ZM104.51,18.24c.78.32.31-.31-1.1-.67-2.21-.29-4.78,1-6.48,2.32-.14.11-2.53,2.25-1.18,1.34C98,19.68,101.6,17.05,104.51,18.24Zm-1.69,5.12a14.09,14.09,0,0,0-5.06,1.24s-5,2.14-2.85,1.5,4-1.66,6.5-2.2c.16,0,2.51-.38,1.6-.52Zm-47,48.48.34.24,0-.47A14.93,14.93,0,0,0,54,65.67c-.38-.69-.35-1-.79-.31-.71,1.17-2.52,1.48-2.47,3.65a2.83,2.83,0,0,0,2.11,2.56,8.29,8.29,0,0,1,2,.93,11.54,11.54,0,0,1,1,.63l.25.18.11-.88-.32-.06a2.48,2.48,0,0,1-.7-.29c-.51-.31-1-.63-1.51-1-.17-.11-.73-.38-.62-.5C53.33,70.33,55.51,71.62,55.84,71.84Zm121.09-9.93c-1,.78-1.6.92-2,.5-.19-.18-.36-.09-.64.34-.45.68-.77.72-2.05.27a4.33,4.33,0,0,0-1.76-.2c0,.69,0,1.48,0,2.36,0,1.58,0,3.64,0,6.2a2.81,2.81,0,0,1-2.61,2.8l-.71,0a3.47,3.47,0,0,1,.25.29c.77,0,1.33.06,1.23.22a1.44,1.44,0,0,1-.66.45c.17.21.35.42.51.63a15.8,15.8,0,0,1,2.4,4.4,16.47,16.47,0,0,1,.86,4.71,49.28,49.28,0,0,0,5.67-7.72V62.4c0-.29,0-.55,0-.79ZM25.29,74.26c-.06,0-.26-.2-.43-.45a2.77,2.77,0,0,1-1.24.3h-.2l-.77,0A2.8,2.8,0,0,1,20.3,72.4,44.27,44.27,0,0,0,24.5,80a2.72,2.72,0,0,1,1,.6,2.8,2.8,0,0,1,.88,2,55.48,55.48,0,0,0,4.25,4.76l2-.08V72.59c-1,.2-2.08.43-3.05.66C27.32,73.81,25.36,74.26,25.29,74.26Zm6.43,4.4c.14.17.18.37.1.46A15.48,15.48,0,0,1,27.35,79a3.37,3.37,0,0,1-1-.46,2,2,0,0,0-1.4-.13c-1.13.14-1.82-.08-1.55-.51s2.89-.31,3.85.09a8.09,8.09,0,0,0,2.5.34C30.91,78.36,31.55,78.46,31.72,78.66Zm16.5-22.89c-.33.18-.2,2.52-.11,3a10.3,10.3,0,0,0,1.49-.83c.58-.34.91-.31.89-.92,0-1-.05-1.66,0-2.65C49.77,54.81,49,55.37,48.22,55.77Zm-28.44,12-.05,0a5.68,5.68,0,0,1-1.34-1l0,0a37.68,37.68,0,0,0,1.94,5.68,2.47,2.47,0,0,1-.23-1C20,70.08,19.9,68.87,19.78,67.76Zm-2.47-7.48c.07,1,.17,1.91.31,2.86a2.6,2.6,0,0,0,.55-1.53,7.61,7.61,0,0,0-.67-1.07A2.48,2.48,0,0,0,17.31,60.28ZM154.92,81.19c0,.45.08.9.13,1.33,1.22.16,1.27.53.1.78.11.7.24,1.38.39,2A10.17,10.17,0,0,0,157,88.92,2.47,2.47,0,0,0,158.68,90a3.08,3.08,0,0,0,.38,0,.41.41,0,0,0,.16,0,2.49,2.49,0,0,0,.21-1.24,6.36,6.36,0,0,0-.91-3.55,21.23,21.23,0,0,0-3.12-3.61Zm2.18,10ZM161.88,64a.75.75,0,0,0-.21-.19h-.16a1.16,1.16,0,0,0-.76.52,2.59,2.59,0,0,0-.4,1.61,3.43,3.43,0,0,0,.29,1.54A7.57,7.57,0,0,0,162,69.18l1.29,1.25.7.68a20.52,20.52,0,0,0-.72-4.24A7.68,7.68,0,0,0,161.88,64ZM54.09,77c.19,0,.2-.07.09-.29a21.44,21.44,0,0,0-2.12-2.94,2.18,2.18,0,0,0-.59.28l-.49.29.21.5a4.37,4.37,0,0,0,2.33,2.08A1.58,1.58,0,0,0,54.09,77ZM49.5,59.74c-.4.22-.83.39-1.17.58s-.08,2.87,0,3.4c0,.24,2-1.09,2.14-1.17.32-.2.48-.2.52-.48a2.82,2.82,0,0,0-.31-1.67C50.16,59.17,50.36,59.26,49.5,59.74Zm.63,16.88c-1.47-.14-1.8-.35-1.28-.68a3.65,3.65,0,0,1,.89-.1l-.14-.27A27.12,27.12,0,0,1,48,71.22c-1,0-2,0-2.83,0v5c.26.13.24.18,0,.26V88.66l.42-.48a16.09,16.09,0,0,0,2.12-3.55,15.56,15.56,0,0,0,1.26-4.33,2.8,2.8,0,0,1,2-2.27C50.63,77.56,50.37,77.1,50.13,76.62Zm1.22-4.68a3.58,3.58,0,0,1-1.47-4.11c.22-.74.12-.47-.1-.65-.48-.42-.48,0-.75-.17-1.17-.77,3.16-1.94,2-2.55-.52-.27-.87-.38-1.36,0-.67.48-1.23.29-1.22,1,0,2.13,1.26,5.53,2,7.54.15.39.14.63.43.47C52.61,72.23,53.29,73.13,51.35,71.94Zm7,15.41a3.74,3.74,0,0,0,.28-.33l.06-.09c-.46-.38-.91-.81-1.6-1.5S55.56,84,55.33,83.74l-.13-.13c0,.26,0,.53,0,.82s0,.62,0,1a13.35,13.35,0,0,1,1.42.34c1.32.4,1.36.43.72.57a12.07,12.07,0,0,1-2.13.15c0,.3,0,.62,0,1,0,1.28.09,2.62.2,4a2.66,2.66,0,0,1,0,.63,9.34,9.34,0,0,1,1.82.5,2.83,2.83,0,0,1-.7-1.85V90A2.79,2.79,0,0,1,58.31,87.35ZM93.08,101c-1.64-1.8-3.22-3.64-4.78-5.51a21.56,21.56,0,0,1-3.08-4.61,2.89,2.89,0,0,1-1.54.46h0c-.8,0-1.7,0-2.71.07s-2.15.12-3.26.2-2.19.17-3.19.26l-.88.09c.37.35.73.68,1,.88,0,0,2.18,1.77,1.36,1.4A14.05,14.05,0,0,1,72.81,92l-.53.08h-.14A39.91,39.91,0,0,0,84.5,99.45,16.57,16.57,0,0,0,93.08,101Zm9.09,4.51c4,.52,6-.79,9.27-2.81,3.58-2.21,5.21-1.76,8.7-3,.79-.28,1-.21.16-.34l-1.21-.22a31.29,31.29,0,0,1-6.82-2.5c-3.21-1.68-4.3-1.05-7.72-.55-.13,0-1.25.07-.8.18a53.18,53.18,0,0,1,7.57,2.15c1.05.43,4.1,2.06.73,1.08s-6.63-2-10.18-2.71c-.44-.09-1.84-.56-2.13-.09-.41.66,6.61,3,7.34,3.33.21.09,1.46.48.74.51-3.31.16-9.37-3-12.18-4.75a30.05,30.05,0,0,0-3.54-2.21c-.64-.18-1.57-.45-.81.44,2.37,2.8,4.93,4.23,7.91,6.21.17.11,2.92,1.79,1.42,1.37-2.61-.73-5.89-3.08-7.9-4.89a32.23,32.23,0,0,1-6.28-7.76,2.76,2.76,0,0,1-.19.68c.71,1.86,1.56,2.83,3.08,4.88C92.63,98.94,96.24,104.62,102.17,105.49ZM32.71,89.24v-1H31.65C32,88.6,32.35,88.92,32.71,89.24Zm22.71-7.18a6.88,6.88,0,0,0,.82,1,17.37,17.37,0,0,0,1.42,1.38l.59.48L58,84.43a14.48,14.48,0,0,0-1.83-2.49C56,81.78,55.45,81.86,55.42,82.06Zm-.25-2.18a3,3,0,0,1,.12,1c0,.12,0,.27,0,.4l.51-.23.24-.1-.7-.87Zm-1.66,4.55v0Zm0,2.35c0,.23,0,.46,0,.71C53.54,87.24,53.54,87,53.53,86.78Zm103.63,8.14c-.28-.1-.55-.21-.8-.32C156.61,94.71,156.88,94.82,157.16,94.92ZM61.49,42.08a2,2,0,0,0,1.07-1,60.52,60.52,0,0,1,3.84-5.24,54.42,54.42,0,0,1,5.16-5.49,44.16,44.16,0,0,1,4.33-3.95c.71-.54.9-.72.78-.74A7,7,0,0,0,75,26.77a45.26,45.26,0,0,0-4.13,3.63,48.94,48.94,0,0,0-6.8,7.51c-1,1.29-2.54,3.63-2.76,4.09C61.2,42.2,61.21,42.21,61.49,42.08ZM82.8,28.15a1,1,0,0,0,.78-.94c.14-.72-.44-1.18-1.36-1.08-1.39.14-1.61,1.78-.27,2.07A1.83,1.83,0,0,0,82.8,28.15Zm-1-1.58a.43.43,0,0,0,.09.26.42.42,0,0,0,.61.09.44.44,0,0,0,.15-.49.84.84,0,0,1,.31.25.79.79,0,1,1-1.26.94A.77.77,0,0,1,81.81,26.57Zm-2.35,1.28a3.48,3.48,0,0,0,1.2,1.45,3.37,3.37,0,0,0,2.2.17A2.73,2.73,0,0,0,85,27.14a2.09,2.09,0,0,0-.09-1.24c-.16-.22-.34,0-.29.32a3.65,3.65,0,0,1-.55,2.14c-1,1.25-2.83,1.09-4.34-.39C79.48,27.71,79.42,27.69,79.46,27.85Zm87.28,2.4c.25.26.31.64.21,1.43a7,7,0,0,0,.48,3,7.86,7.86,0,0,0,.88,2.09,1,1,0,0,0,.45.17,1.28,1.28,0,0,0,.22-.47h0c0-.14.15-.43.3-.79s.33-.79.52-1.2a6.27,6.27,0,0,1,.65-1.16.44.44,0,0,1,.37-.22h0a.61.61,0,0,1,.48-.23.79.79,0,0,0,.24,0,2.91,2.91,0,0,0,.57-.49,4.76,4.76,0,0,1,.46-.45l.11-.09a64.16,64.16,0,0,0-13.77-12c-15-9.94-35.84-16.08-58.86-16.08A119.64,119.64,0,0,0,63.26,9.29a9.88,9.88,0,0,1,4.81,2.57c2,1.68,2.86,2.17,4.51,2.57s3,1.26,5.92,4.1c.8.78,1.8,1.69,2.75,2.5l.36-.18c1.6-.75,3.63-1.48,5.29-2.11a38.06,38.06,0,0,0,5.25-2.1A4.85,4.85,0,0,0,93.85,15,12.31,12.31,0,0,1,97,11.83a7.91,7.91,0,0,1,2.22-1.29,11,11,0,0,1,4.45-.78,9,9,0,0,1,4.85,1.89,5.42,5.42,0,0,1,2,4,7.35,7.35,0,0,1,.07.82,62.45,62.45,0,0,1,8.06-3.38c4-1.35,4.24-1.41,5.67-1.26a9.4,9.4,0,0,1,4.81,1.94,60.1,60.1,0,0,0,9.56,4.57,56.39,56.39,0,0,1,8.71,4.05,49.45,49.45,0,0,1,3.71,3.27c1.49,1.42,3.34,3.06,4.13,3.66a10.85,10.85,0,0,1,1.42,1.2,11.72,11.72,0,0,1-.57,1.23c-.66,1.3-.67,1.36-.24,1.36a2.43,2.43,0,0,0,.51-.61,2.85,2.85,0,0,0,.5-1.34.91.91,0,0,1,.13-.37,2.22,2.22,0,0,1,.36-.45,1.15,1.15,0,0,1,.5-.33h0c.57-.44.9-.23.58.48s.17,1.45,2.65,2.83c2.17,1.2,2.21,1.24,2.07,1.92A11.1,11.1,0,0,1,161.26,39c-.11,0-.28-.1-.45-.31a.36.36,0,0,1-.09.09s0,0-.07-.08a1.64,1.64,0,0,1-.29-.37v0l-.07-.11v.06a1,1,0,0,0,1,1h0a3.94,3.94,0,0,0,.77-.91,16.5,16.5,0,0,0,1.33-2.64l.46-1.13.37-.88a4.65,4.65,0,0,0,.23-.81,4.74,4.74,0,0,0,.1-.87,1.65,1.65,0,0,1,.12-.71,1.78,1.78,0,0,1,.45-.59c.34-.33.52-.5.62-.52a.07.07,0,0,1,.06,0C166.25,29.83,166.37,29.89,166.74,30.25Zm-7.38,65.28a16.8,16.8,0,0,1-2.11-.58A15.25,15.25,0,0,0,159.36,95.53ZM80.71,34.75c-.24.26-.24.27,0,.19a12.5,12.5,0,0,0,2.56-1.8,4.34,4.34,0,0,0,.85-1.37c.08-.25.05-.23-.43.19C82.79,32.77,81,34.47,80.71,34.75Zm-6.24-3.12c-.5.52-1.29,1.32-1.74,1.76s-1.09,1.13-1.42,1.51a23.7,23.7,0,0,0-1.92,2.67s.16-.06.18-.14a8.68,8.68,0,0,1,.84-1c.46-.48,1.24-1.32,1.73-1.86,1-1.11,1.81-2,3.25-3.48a13.81,13.81,0,0,0,1-1.11C76.4,29.84,75.34,30.73,74.47,31.63ZM47,16.26q-3,1.65-5.79,3.48A64.55,64.55,0,0,0,27.83,31.32c2.17-1.47,4.42-3,5.66-4C34.1,26.87,35,26.1,36,25.24h0c1-.86,2.09-1.81,3-2.63h0c2-1.77,3.49-3.07,5.21-4.38C45.11,17.58,46,17,47,16.26ZM153.58,95a2.84,2.84,0,0,1-1.66.54,2.56,2.56,0,0,1-.47,0l-.77-.13a2.79,2.79,0,0,1-2.33-2.93c0-.32,0-.68.05-1.06a13.11,13.11,0,0,1-1.32-.17l-.56-.14.56-.22a9.5,9.5,0,0,1,1.34-.16c0-.21,0-.44,0-.67,0-.57,0-1.26,0-2a29.25,29.25,0,0,0-4.51.51c0,.69.08,1.39.14,2.11a2.83,2.83,0,0,1-.9,2.31,2.79,2.79,0,0,1-1.89.74,2.72,2.72,0,0,1-.49,0c-1.12-.19-2.38-.38-3.75-.56s-2.61-.32-3.8-.44l-1.65-.17a61.22,61.22,0,0,1-8.5,3.09c-1.15.31-6.34,1-6.69,1.34a23,23,0,0,0,4.08,1c.35.06,3.58.31,2.64,1.38-1.13,1.28-4.46,2.29-6.06,2.75-4.52,1.29-8.7,5.57-13.32,5.53a12.06,12.06,0,0,1-8.6-3.68c-.32-.3-.78-1-1.21-.88-1.94.37-5.15-.23-7.1-.7a45.43,45.43,0,0,1-16-6.72c-1.28-.84-2.62-1.72-4-2.62l0,0a4.29,4.29,0,0,1-3,.13,2.2,2.2,0,0,1-.25-.17l-1.32.15c-.4,0-.83.1-1.29.17a8,8,0,0,0-.89.18,3,3,0,0,1-.59.09c.28.18.16.27-.1.46-.59.43-1.16.37-2.72-.29a4.3,4.3,0,0,0-1.72-.46,2.78,2.78,0,0,1-2,1.23c-1.14.12-2.4.28-3.75.48s-2.63.42-3.78.62l-3.23.58-.39.08c15,9.71,35.56,15.7,58.28,15.7,17.17,0,33.1-3.42,46.33-9.28a.19.19,0,0,1-.12-.11h0a.44.44,0,0,1,0-.23h0a.38.38,0,0,1,.07-.18,4.76,4.76,0,0,1,1.85-.28,85.75,85.75,0,0,0,9.25-5,13,13,0,0,1-2.7-1.12Zm-82,10a31.81,31.81,0,0,0-4.18-.08c-2.66.13-4,0-4.65-.53-.46-.34-.11-.37,5.36-.37s5.91,0,6.6.45c.4.25.74.53.74.62S74.15,105.2,71.56,104.92Zm14.4,0c-2.24-.28-2.48-.38-2.27-.93s.84-.43,3.67-.11c2.4.27,3.08.43,3.08.68C90.44,105,88.4,105.2,86,104.88Zm55.24-2.13a8.89,8.89,0,0,1-3.44.25c-.31-.06-1.68-.43-3-.82-2.34-.67-2.56-.7-4.17-.46s-2.58.18-2.58-.17c0-.1.33-.25.74-.33l2.25-.5c1.47-.34,1.57-.34,3.87.26a35.17,35.17,0,0,0,4.11.79C140.72,102,141.61,102.34,141.2,102.75ZM54,48.38a12.25,12.25,0,0,0-1.36,12.91C54.12,64.42,56.3,67,57,70.48a10.91,10.91,0,0,1-.47,5.21,6.46,6.46,0,0,1-.68,1.16,2.17,2.17,0,0,1-2.89.91c-.6-.21-.65-.16-.15.14a2.81,2.81,0,0,1,1,.34,2.91,2.91,0,0,0,.65,0,4.77,4.77,0,0,0,2.42-1.56,8.17,8.17,0,0,0,1.38-6c-.53-3-2.58-5.85-4.09-8.49-2.82-5-1.84-10,1.79-14.24a18,18,0,0,1,4.05-3,49.34,49.34,0,0,1,9.46-3.32c1.34-.37,2.91-.82,3.49-1s1.68-.5,2.46-.72a29.27,29.27,0,0,0,8.8-3.72c2.06-1.4,2.77-2.55,3.28-5.36.18-1,.27-1.27.45-1.35a3.77,3.77,0,0,0,.77-.9l.11-.15c1-1.48,2.1-2.77,3.13-4.32,2.57-3.88,4.2-6.19,8-9a4.37,4.37,0,0,1,6,.38c2,2.11,1.44,4.48,1.06,7.1,0,.15-.21.8,0,.41a10.09,10.09,0,0,0,1.2-4.63c0-.16-.18-1.92,0-1.88.48.09.58,2.31.57,2.73s-.29,1.61,0,.9a8.86,8.86,0,0,0,.51-4.18,4.85,4.85,0,0,0-4.07-4.38,8.66,8.66,0,0,0-1.61-.21c-5.62-.13-9.25,5.18-11.9,9.39a36.33,36.33,0,0,1-2,3.26c-1.17,1.12-1.87,3-3.19,4.18a7.61,7.61,0,0,0-.84.89c-.48.58-.51.65-.47,1.14A5.59,5.59,0,0,1,83.64,34a6.53,6.53,0,0,1-1.71,1.32c-1.61,1-3.23,1.57-7,2.6-1.06.3-2.59.76-3.4,1A98.92,98.92,0,0,0,60.8,43.52a21.48,21.48,0,0,0-4.64,2.81A13.69,13.69,0,0,0,54,48.38Zm34.4-21a1.65,1.65,0,0,1,.28-.5,24.64,24.64,0,0,0,1.53-2c1.59-2.42,3-4.77,4.74-7.1,0-.05,1.7-2,1.62-1.53,0,.24-4.23,6.29-4.82,7.2a15.48,15.48,0,0,1-3.42,4.27ZM48,54.9c.63-.33,2.55-1.38,2.7-1.94a13.73,13.73,0,0,1,4.68-7.34,4,4,0,0,0,.87-.92,1,1,0,0,1,.25-.36c.71-.57-1.83.8-1.84.8-1.24.67-3,1.83-4.22,2.31-.24.09-.92.26-.89-.23s4.6-3.11,5.22-3.46c2.86-1.6,5.47-3.59,5.2-3.95-.1-.14-2.2.71-6.44,2.58A24.81,24.81,0,0,0,49,44.81c-2.42,1.6-1.8.66-1,2.29C48.59,48.37,48.1,53.19,48,54.9Zm78,37c-.27.15-3.51,2.07-1.78,1.78a20.27,20.27,0,0,0,4.91-1.54L126,91.91ZM59.77,84.35c0-.08.06-.15.09-.24a28.24,28.24,0,0,1-3.45-5.49c0-.14-.09-.15-.25,0s-.21.16.65,1.5c1,1.6,1.85,3,2.92,4.38A.42.42,0,0,0,59.77,84.35Zm84.08,0c0,.54,0,1.29,0,2.23a19,19,0,0,1,4.58-.37v0c0-1,0-2.1,0-3.39a21.23,21.23,0,0,0-4.54-1.57Q143.85,82.47,143.85,84.36Zm-21.13,8c.1-.2.2-.41.28-.61l-1,0A8,8,0,0,1,119,94c-1.44.69-7.43,2.31-1.89,1.07C119.14,94.64,121.6,94.4,122.72,92.32Zm1.64-.36.25-.15-.51,0C124,92.1,124,92.21,124.36,92ZM59.15,85.63l.1.1.06-.15a.43.43,0,0,0-.23-.17C59,85.44,59.12,85.59,59.15,85.63Zm1.53-4.94c.06.14.14.3.22.47L61,81l-.3-.52C60.53,80.26,60.54,80.34,60.68,80.69Zm67.8-47a6,6,0,0,1-3.5.13c-2.1-.54-3-1.51-4.23-3.22-1.82-2.51-2.54-6-5.2-7.55-2.36-1.38-4.77-.9-7,.44,2.09-.67,4.42-1.32,6.49-.19,2.68,1.46,3.84,5.84,5.49,8.44,1.45,2.22,4,3.64,6.71,2.75C127.38,34.39,129.51,33.39,128.48,33.64ZM69.42,44c-.16.09-.16.24,0,.88a4.15,4.15,0,0,1,.14,1.29c0,.48,0,.63.44,1.53l.09.17a10.18,10.18,0,0,0,8,5.64,8.87,8.87,0,0,0,3.35-.37c.22-.11.22-.67-.15-.56a8.5,8.5,0,0,1-6.68-.85c-1.61-1-2.09-2-3.32-3-1.07-.89-1.19-2.57-1.39-3.85C69.84,44.16,69.67,43.87,69.42,44Zm1.51,42L70,83.53a3.13,3.13,0,0,0-.21,3.2A2.75,2.75,0,0,1,70.93,86Zm69-8a1.48,1.48,0,0,1-.55-.26v.4A2.61,2.61,0,0,1,140,78.05ZM144,64.54c.14-1.22.11-1.42-.2-1.42s-.36.09-.36.2a.18.18,0,0,1-.06.1,3,3,0,0,1,0,.52c-.06.87-.11,1.71-.14,2.53C143.77,66,143.88,65.63,144,64.54Zm-17.41-2a15.51,15.51,0,0,1,0-2.14l.06-1.08-.41.12a9.72,9.72,0,0,0-4.17,3c-.12.15-.22.31-.33.46,1.26-.07,2.61-.15,4.06-.25ZM66.43,70.92h0l1-2.52Zm4.81-9.7,0,.05c-.06.21-.13.52-.22.94l0,.07.64.07C71.48,61.05,71.4,60.71,71.24,61.22ZM68.09,87c.06,0,.13.09.19.15A2.9,2.9,0,0,1,69,88.4a2.22,2.22,0,0,1,.1-.5,6.2,6.2,0,0,1-.52-1c-.37-.85-.9-2.28-1.41-3.84H67c-.11.29-.19.56-.27.82a22.29,22.29,0,0,0,1.18,2.7C67.94,86.75,68,86.87,68.09,87Zm.08-3.41c.25.73.22,1,.43.48a8.2,8.2,0,0,1,.52-1l-1.13,0Zm3,4.18a1.13,1.13,0,0,0-.35.43A1.13,1.13,0,0,1,71.16,87.77ZM81.73,77.06l-.08.12-.3.55c.06.16.13.32.19.47a.08.08,0,0,0,0,0C81.8,77.59,81.88,77.09,81.73,77.06Zm1.08,1.15c-.18.45-.39,1-.63,1.57l.43,1A6.66,6.66,0,0,0,83,79.5C83,79.39,83.29,77,82.81,78.21Z" transform="translate(0.09 -0.02)"/></svg>